<svg width="20" height="17" viewBox="0 0 20 17" fill="none" xmlns="http://www.w3.org/2000/svg">
<path d="M18.5714 0H1.42857C1.04969 0 0.686328 0.149255 0.418419 0.414932C0.15051 0.680609 0 1.04094 0 1.41667V15.5833C0 15.9591 0.15051 16.3194 0.418419 16.5851C0.686328 16.8507 1.04969 17 1.42857 17H18.5714C18.9503 17 19.3137 16.8507 19.5816 16.5851C19.8495 16.3194 20 15.9591 20 15.5833V1.41667C20 1.04094 19.8495 0.680609 19.5816 0.414932C19.3137 0.149255 18.9503 0 18.5714 0ZM18.5714 1.41667V2.83333H1.42857V1.41667H18.5714ZM1.42857 15.5833V4.25H18.5714V15.5833H1.42857Z" fill="#929292"/>
</svg>
