<svg width="20" height="22" viewBox="0 0 20 22" fill="none" xmlns="http://www.w3.org/2000/svg">
<path d="M6.92308 16.8667H6.15385V17.6H6.92308V16.8667ZM14.6154 16.8667V17.6H15.3846V16.8667H14.6154ZM7.69231 16.8667V16.1333H6.15385V16.8667H7.69231ZM13.8462 16.1333V16.8667H15.3846V16.1333H13.8462ZM14.6154 16.1333H6.92308V17.6H14.6154V16.1333ZM10.7692 13.2C11.5853 13.2 12.3679 13.509 12.9449 14.0592C13.522 14.6093 13.8462 15.3554 13.8462 16.1333H15.3846C15.3846 14.9664 14.8984 13.8472 14.0328 13.0221C13.1672 12.1969 11.9933 11.7333 10.7692 11.7333V13.2ZM7.69231 16.1333C7.69231 15.3554 8.01648 14.6093 8.59352 14.0592C9.17055 13.509 9.95318 13.2 10.7692 13.2V11.7333C9.54515 11.7333 8.37121 12.1969 7.50566 13.0221C6.64011 13.8472 6.15385 14.9664 6.15385 16.1333H7.69231ZM10.7692 4.4C9.95318 4.4 9.17055 4.70905 8.59352 5.25915C8.01648 5.80926 7.69231 6.55537 7.69231 7.33333H9.23077C9.23077 6.94435 9.39286 6.5713 9.68137 6.29624C9.96989 6.02119 10.3612 5.86667 10.7692 5.86667V4.4ZM13.8462 7.33333C13.8462 6.55537 13.522 5.80926 12.9449 5.25915C12.3679 4.70905 11.5853 4.4 10.7692 4.4V5.86667C11.1773 5.86667 11.5686 6.02119 11.8571 6.29624C12.1456 6.5713 12.3077 6.94435 12.3077 7.33333H13.8462ZM10.7692 10.2667C11.5853 10.2667 12.3679 9.95762 12.9449 9.40751C13.522 8.85741 13.8462 8.1113 13.8462 7.33333H12.3077C12.3077 7.72232 12.1456 8.09537 11.8571 8.37042C11.5686 8.64548 11.1773 8.8 10.7692 8.8V10.2667ZM10.7692 8.8C10.3612 8.8 9.96989 8.64548 9.68137 8.37042C9.39286 8.09537 9.23077 7.72232 9.23077 7.33333H7.69231C7.69231 8.1113 8.01648 8.85741 8.59352 9.40751C9.17055 9.95762 9.95318 10.2667 10.7692 10.2667V8.8ZM3.84615 1.46667H17.6923V0H3.84615V1.46667ZM18.4615 2.2V19.8H20V2.2H18.4615ZM17.6923 20.5333H3.84615V22H17.6923V20.5333ZM3.07692 19.8V2.2H1.53846V19.8H3.07692ZM3.84615 20.5333C3.64214 20.5333 3.44648 20.4561 3.30223 20.3185C3.15797 20.181 3.07692 19.9945 3.07692 19.8H1.53846C1.53846 20.3835 1.78159 20.9431 2.21437 21.3556C2.64715 21.7682 3.23412 22 3.84615 22V20.5333ZM18.4615 19.8C18.4615 19.9945 18.3805 20.181 18.2362 20.3185C18.092 20.4561 17.8963 20.5333 17.6923 20.5333V22C18.3043 22 18.8913 21.7682 19.3241 21.3556C19.7569 20.9431 20 20.3835 20 19.8H18.4615ZM17.6923 1.46667C17.8963 1.46667 18.092 1.54393 18.2362 1.68146C18.3805 1.81898 18.4615 2.00551 18.4615 2.2H20C20 1.61652 19.7569 1.05695 19.3241 0.644365C18.8913 0.231785 18.3043 0 17.6923 0V1.46667ZM3.84615 0C3.23412 0 2.64715 0.231785 2.21437 0.644365C1.78159 1.05695 1.53846 1.61652 1.53846 2.2H3.07692C3.07692 2.00551 3.15797 1.81898 3.30223 1.68146C3.44648 1.54393 3.64214 1.46667 3.84615 1.46667V0ZM4.61538 5.86667H0V7.33333H4.61538V5.86667ZM4.61538 14.6667H0V16.1333H4.61538V14.6667Z" fill="#737373"/>
</svg>
