<svg width="40" height="40" viewBox="0 0 40 40" fill="none" xmlns="http://www.w3.org/2000/svg">
<path d="M13.8462 30.6667H12.3077V32H13.8462V30.6667ZM29.2308 30.6667V32H30.7692V30.6667H29.2308ZM15.3846 30.6667V29.3333H12.3077V30.6667H15.3846ZM27.6923 29.3333V30.6667H30.7692V29.3333H27.6923ZM29.2308 29.3333H13.8462V32H29.2308V29.3333ZM21.5385 24C23.1706 24 24.7358 24.5619 25.8899 25.5621C27.044 26.5623 27.6923 27.9188 27.6923 29.3333H30.7692C30.7692 27.2116 29.7967 25.1768 28.0656 23.6765C26.3345 22.1762 23.9866 21.3333 21.5385 21.3333V24ZM15.3846 29.3333C15.3846 27.9188 16.033 26.5623 17.187 25.5621C18.3411 24.5619 19.9064 24 21.5385 24V21.3333C19.0903 21.3333 16.7424 22.1762 15.0113 23.6765C13.2802 25.1768 12.3077 27.2116 12.3077 29.3333H15.3846ZM21.5385 8C19.9064 8 18.3411 8.5619 17.187 9.5621C16.033 10.5623 15.3846 11.9188 15.3846 13.3333H18.4615C18.4615 12.6261 18.7857 11.9478 19.3627 11.4477C19.9398 10.9476 20.7224 10.6667 21.5385 10.6667V8ZM27.6923 13.3333C27.6923 11.9188 27.044 10.5623 25.8899 9.5621C24.7358 8.5619 23.1706 8 21.5385 8V10.6667C22.3545 10.6667 23.1371 10.9476 23.7142 11.4477C24.2912 11.9478 24.6154 12.6261 24.6154 13.3333H27.6923ZM21.5385 18.6667C23.1706 18.6667 24.7358 18.1048 25.8899 17.1046C27.044 16.1044 27.6923 14.7478 27.6923 13.3333H24.6154C24.6154 14.0406 24.2912 14.7189 23.7142 15.219C23.1371 15.719 22.3545 16 21.5385 16V18.6667ZM21.5385 16C20.7224 16 19.9398 15.719 19.3627 15.219C18.7857 14.7189 18.4615 14.0406 18.4615 13.3333H15.3846C15.3846 14.7478 16.033 16.1044 17.187 17.1046C18.3411 18.1048 19.9064 18.6667 21.5385 18.6667V16ZM7.69231 2.66667H35.3846V0H7.69231V2.66667ZM36.9231 4V36H40V4H36.9231ZM35.3846 37.3333H7.69231V40H35.3846V37.3333ZM6.15385 36V4H3.07692V36H6.15385ZM7.69231 37.3333C7.28428 37.3333 6.89297 37.1929 6.60445 36.9428C6.31593 36.6928 6.15385 36.3536 6.15385 36H3.07692C3.07692 37.0609 3.56319 38.0783 4.42874 38.8284C5.29429 39.5786 6.46823 40 7.69231 40V37.3333ZM36.9231 36C36.9231 36.3536 36.761 36.6928 36.4725 36.9428C36.184 37.1929 35.7926 37.3333 35.3846 37.3333V40C36.6087 40 37.7826 39.5786 38.6482 38.8284C39.5137 38.0783 40 37.0609 40 36H36.9231ZM35.3846 2.66667C35.7926 2.66667 36.184 2.80714 36.4725 3.05719C36.761 3.30724 36.9231 3.64638 36.9231 4H40C40 2.93913 39.5137 1.92172 38.6482 1.17157C37.7826 0.421427 36.6087 0 35.3846 0V2.66667ZM7.69231 0C6.46823 0 5.29429 0.421427 4.42874 1.17157C3.56319 1.92172 3.07692 2.93913 3.07692 4H6.15385C6.15385 3.64638 6.31593 3.30724 6.60445 3.05719C6.89297 2.80714 7.28428 2.66667 7.69231 2.66667V0ZM9.23077 10.6667H0V13.3333H9.23077V10.6667ZM9.23077 26.6667H0V29.3333H9.23077V26.6667Z" fill="#929292"/>
</svg>
