<svg width="37" height="37" viewBox="0 0 37 37" fill="none" xmlns="http://www.w3.org/2000/svg">
<path fill-rule="evenodd" clip-rule="evenodd" d="M18.4105 0H18.5895C20.1366 0 21.4256 7.69316e-08 22.4478 0.137674C23.5286 0.282233 24.5043 0.602326 25.2873 1.38535C26.0721 2.17009 26.3922 3.14586 26.5367 4.22488C26.64 4.98209 26.6658 5.88386 26.6727 6.92674C27.7879 6.96288 28.7826 7.03 29.6671 7.14702C31.684 7.41893 33.3172 7.99028 34.6062 9.27753C35.8934 10.5665 36.4648 12.1997 36.7367 14.2166C37 16.1785 37 18.6824 37 21.8455V22.0382C37 25.2013 37 27.707 36.7367 29.6671C36.4648 31.684 35.8934 33.3172 34.6062 34.6062C33.3172 35.8934 31.684 36.4648 29.6671 36.7367C27.7053 37 25.2013 37 22.0382 37H14.9618C11.7987 37 9.29302 37 7.33288 36.7367C5.31595 36.4648 3.68279 35.8934 2.39381 34.6062C1.10656 33.3172 0.535209 31.684 0.263302 29.6671C0 27.7053 0 25.2013 0 22.0382V21.8455C0 18.6824 0 16.1767 0.263302 14.2166C0.535209 12.1997 1.10656 10.5665 2.39381 9.27753C3.68279 7.99028 5.31595 7.41893 7.33288 7.14702C8.32675 7.02397 9.32613 6.95045 10.3273 6.92674C10.3342 5.88386 10.3617 4.98209 10.4633 4.22488C10.6078 3.14586 10.9279 2.17009 11.7109 1.38535C12.4957 0.602326 13.4714 0.283954 14.5505 0.137674C15.5744 7.69316e-08 16.8651 0 18.4105 0ZM12.9104 6.88716C13.5609 6.88372 14.2441 6.88372 14.9618 6.88372H22.0382C22.7559 6.88372 23.4391 6.88372 24.0896 6.88716C24.0827 5.90623 24.0586 5.16623 23.9794 4.56907C23.871 3.77572 23.6869 3.43498 23.4632 3.21126C23.2394 2.98753 22.8987 2.8034 22.1036 2.69498C21.2741 2.58484 20.159 2.5814 18.5 2.5814C16.841 2.5814 15.7259 2.58484 14.8947 2.6967C14.1013 2.8034 13.7606 2.98753 13.5368 3.21298C13.3131 3.4367 13.129 3.77572 13.0206 4.56907C12.9414 5.16451 12.9173 5.90451 12.9104 6.88716ZM7.67535 9.70605C5.94409 9.93837 4.94595 10.3755 4.21628 11.1034C3.49005 11.8314 3.05293 12.8295 2.8206 14.5608C2.58312 16.3282 2.57967 18.66 2.57967 21.9419C2.57967 25.2237 2.58312 27.5555 2.8206 29.3247C3.05293 31.0542 3.49005 32.0523 4.218 32.7803C4.94595 33.5082 5.94409 33.9454 7.67535 34.1777C9.44447 34.4152 11.7746 34.4186 15.0564 34.4186H21.9401C25.222 34.4186 27.5538 34.4152 29.3229 34.1777C31.0525 33.9454 32.0506 33.5082 32.7786 32.7803C33.5065 32.0523 33.9436 31.0542 34.176 29.3229C34.4134 27.5555 34.4169 25.2237 34.4169 21.9419C34.4169 18.66 34.4134 16.3299 34.176 14.5591C33.9436 12.8295 33.5065 11.8314 32.7786 11.1034C32.0506 10.3755 31.0525 9.93837 29.3212 9.70605C27.5538 9.46856 25.222 9.46512 21.9401 9.46512H15.0564C11.7746 9.46512 9.44619 9.46856 7.67535 9.70605Z" fill="#737373"/>
<path d="M22.3781 26.4967V28.033H14.7295L14.3991 27.0088C14.8616 26.5132 15.2031 26.0231 15.4233 25.5386C15.6436 25.043 15.7537 24.4317 15.7537 23.7049C15.7537 23.4846 15.7262 23.2533 15.6711 23.011H13.8539V21.706H15.2581C15.0268 21.0121 14.9112 20.3403 14.9112 19.6905C14.9112 18.9527 15.0709 18.3139 15.3903 17.7743C15.7097 17.2346 16.1502 16.8216 16.7119 16.5353C17.2735 16.2379 17.9233 16.0892 18.6612 16.0892C19.8396 16.0892 20.7317 16.4196 21.3374 17.0804C21.9431 17.7412 22.257 18.5837 22.279 19.608H20.561C20.561 19.0132 20.4068 18.5452 20.0984 18.2038C19.79 17.8513 19.311 17.6751 18.6612 17.6751C18.0665 17.6751 17.5874 17.8458 17.224 18.1872C16.8716 18.5287 16.6953 19.0628 16.6953 19.7897C16.6953 20.1091 16.7284 20.4174 16.7945 20.7148C16.8605 21.0121 16.9542 21.3425 17.0753 21.706H20.2801V23.011H17.4553C17.5103 23.2643 17.5379 23.5011 17.5379 23.7214C17.5379 24.7897 17.1689 25.7148 16.431 26.4967H22.3781Z" fill="#737373"/>
</svg>
