<svg width="22" height="22" viewBox="0 0 22 22" fill="none" xmlns="http://www.w3.org/2000/svg">
<path d="M15.5602 3.38268C15.7609 3.18204 15.9991 3.0229 16.2613 2.91433C16.5235 2.80577 16.8045 2.74991 17.0883 2.74995C17.3721 2.74998 17.6531 2.80591 17.9152 2.91455C18.1774 3.02318 18.4156 3.18238 18.6162 3.38307C18.8169 3.58376 18.976 3.822 19.0846 4.08419C19.1931 4.34638 19.249 4.62739 19.2489 4.91117C19.2489 5.19495 19.193 5.47594 19.0844 5.73811C18.9757 6.00027 18.8165 6.23847 18.6158 6.43911L12.8078 12.2455C12.6845 12.3691 12.5304 12.4575 12.3615 12.5017L8.48325 13.5152L9.49683 9.63696C9.5408 9.46816 9.62894 9.31412 9.75218 9.19068L15.5602 3.38268ZM19.4495 2.54982C19.1394 2.23967 18.7712 1.99364 18.366 1.82578C17.9609 1.65793 17.5266 1.57153 17.088 1.57153C16.6494 1.57153 16.2151 1.65793 15.81 1.82578C15.4048 1.99364 15.0366 2.23967 14.7265 2.54982L8.91854 8.35703C8.64708 8.62861 8.45289 8.96762 8.35597 9.33918L7.08861 14.1902C7.06244 14.2898 7.06282 14.3945 7.08971 14.4938C7.11659 14.5932 7.16905 14.6838 7.24186 14.7566C7.31466 14.8295 7.40527 14.8819 7.50466 14.9088C7.60405 14.9357 7.70875 14.9361 7.80833 14.9099L12.6593 13.6425C13.0309 13.5456 13.3699 13.3514 13.6415 13.08L19.4487 7.27196C20.0748 6.64574 20.4266 5.79645 20.4266 4.91089C20.4266 4.02534 20.0748 3.17604 19.4487 2.54982M12.481 3.68361C10.9093 3.36527 9.2769 3.56154 7.82548 4.24335C6.37407 4.92517 5.18082 6.05628 4.42242 7.46919C3.66403 8.8821 3.38081 10.5017 3.61472 12.0881C3.84863 13.6745 4.58722 15.1435 5.72112 16.2774C6.85503 17.4113 8.32396 18.1499 9.91039 18.3838C11.4968 18.6177 13.1164 18.3345 14.5293 17.5761C15.9422 16.8177 17.0733 15.6244 17.7552 14.173C18.437 12.7216 18.6332 11.0892 18.3149 9.51753L19.2868 8.54482C19.517 9.32268 19.6404 10.1477 19.6404 11.0002C19.6404 15.7734 15.7708 19.643 10.9975 19.643C6.22433 19.643 2.35547 15.7734 2.35547 11.0002C2.35547 6.22696 6.22511 2.35732 10.9983 2.35732C11.8516 2.35732 12.675 2.48068 13.4537 2.71089L12.481 3.68361Z" fill="#929292"/>
</svg>
