<svg width="19" height="21" viewBox="0 0 19 21" fill="none" xmlns="http://www.w3.org/2000/svg">
<path fill-rule="evenodd" clip-rule="evenodd" d="M4.72564 9.11785e-08H14.2753C15.2663 9.11785e-08 15.9483 8.73257e-08 16.5222 0.199251C17.0586 0.389134 17.5441 0.70048 17.9408 1.10908C18.3376 1.51767 18.6351 2.01251 18.81 2.5551C19.001 3.13821 19 3.83168 19 4.86017V18.6788C19 20.1107 17.3173 20.9624 16.2094 19.9456C16.1739 19.9115 16.1266 19.8925 16.0774 19.8925C16.0282 19.8925 15.9809 19.9115 15.9454 19.9456L15.4738 20.3773C14.5696 21.2076 13.1996 21.2076 12.2954 20.3773C12.1318 20.2242 11.9162 20.139 11.6923 20.139C11.4684 20.139 11.2528 20.2242 11.0892 20.3773C10.185 21.2076 8.81503 21.2076 7.91082 20.3773C7.74716 20.2242 7.5316 20.139 7.30769 20.139C7.08378 20.139 6.86822 20.2242 6.70456 20.3773C5.80036 21.2076 4.43041 21.2076 3.52621 20.3773L3.05559 19.9456C3.02 19.9112 2.9725 19.892 2.92308 19.892C2.87365 19.892 2.82615 19.9112 2.79056 19.9456C1.68272 20.9614 0 20.1107 0 18.6788V4.86114C0 3.83168 -5.80763e-08 3.13821 0.19 2.5551C0.364867 2.01247 0.662272 1.5176 1.05907 1.109C1.45588 0.700391 1.94137 0.389068 2.47779 0.199251C3.05267 -0.000976636 3.73472 9.11785e-08 4.72564 9.11785e-08ZM4.86692 1.46508C3.67723 1.46508 3.26703 1.47485 2.95718 1.58327C2.63343 1.6993 2.34073 1.88858 2.10179 2.1364C1.86285 2.38422 1.6841 2.68392 1.57944 3.01221C1.47128 3.34234 1.46251 3.77796 1.46251 5.00081V18.6788C1.46251 18.796 1.52 18.8664 1.59308 18.9005C1.62642 18.9165 1.66359 18.9226 1.70026 18.9181C1.73981 18.9117 1.77632 18.8929 1.80451 18.8644C2.1094 18.583 2.50867 18.4269 2.92308 18.4269C3.33749 18.4269 3.73675 18.583 4.04164 18.8644L4.51226 19.2961C4.67591 19.4493 4.89148 19.5345 5.11538 19.5345C5.33929 19.5345 5.55485 19.4493 5.71851 19.2961C6.15156 18.8961 6.71885 18.6741 7.30769 18.6741C7.89653 18.6741 8.46383 18.8961 8.89687 19.2961C9.06053 19.4493 9.27609 19.5345 9.5 19.5345C9.72391 19.5345 9.93947 19.4493 10.1031 19.2961C10.5362 18.8961 11.1035 18.6741 11.6923 18.6741C12.2811 18.6741 12.8484 18.8961 13.2815 19.2961C13.4451 19.4493 13.6607 19.5345 13.8846 19.5345C14.1085 19.5345 14.3241 19.4493 14.4877 19.2961L14.9584 18.8644C15.2632 18.583 15.6625 18.4269 16.0769 18.4269C16.4913 18.4269 16.8906 18.583 17.1955 18.8644C17.2374 18.9035 17.2734 18.9152 17.3007 18.9181C17.3371 18.9224 17.3739 18.9163 17.4069 18.9005C17.48 18.8664 17.5385 18.795 17.5385 18.6788V5.00081C17.5385 3.77796 17.5287 3.34234 17.4215 3.01123C17.3165 2.68291 17.1374 2.38328 16.8982 2.13563C16.6589 1.88797 16.3658 1.69895 16.0418 1.58327C15.733 1.47583 15.3228 1.46606 14.1331 1.46606L4.86692 1.46508ZM12.4241 6.04591C12.4958 6.10999 12.5542 6.18762 12.596 6.27436C12.6378 6.3611 12.6621 6.45525 12.6675 6.55141C12.6729 6.64758 12.6594 6.74387 12.6276 6.83479C12.5959 6.9257 12.5466 7.00944 12.4825 7.08123L9.0021 10.9881C8.93355 11.0651 8.84955 11.1267 8.75561 11.1689C8.66166 11.211 8.55989 11.2328 8.45695 11.2328C8.35401 11.2328 8.25224 11.211 8.15829 11.1689C8.06434 11.1267 7.98035 11.0651 7.9118 10.9881L6.52041 9.42536C6.39253 9.28036 6.32709 9.09051 6.33839 8.8973C6.34969 8.70409 6.43681 8.52321 6.58072 8.39418C6.72463 8.26515 6.91363 8.19845 7.10644 8.20865C7.29925 8.21886 7.48019 8.30513 7.60974 8.44864L8.45744 9.39997L11.3922 6.10549C11.456 6.03365 11.5334 5.97512 11.6198 5.93325C11.7062 5.89138 11.8 5.86698 11.8958 5.86145C11.9916 5.85592 12.0876 5.86936 12.1782 5.90101C12.2689 5.93266 12.3524 5.98189 12.4241 6.04591ZM4.38559 13.9183C4.38559 13.724 4.46258 13.5377 4.59963 13.4003C4.73667 13.2629 4.92255 13.1857 5.11636 13.1857H13.8856C14.0794 13.1857 14.2653 13.2629 14.4023 13.4003C14.5394 13.5377 14.6164 13.724 14.6164 13.9183C14.6164 14.1126 14.5394 14.2989 14.4023 14.4363C14.2653 14.5736 14.0794 14.6508 13.8856 14.6508H5.11636C4.92255 14.6508 4.73667 14.5736 4.59963 14.4363C4.46258 14.2989 4.38559 14.1126 4.38559 13.9183Z" fill="#929292"/>
</svg>
