<svg width="19" height="19" viewBox="0 0 19 19" fill="none" xmlns="http://www.w3.org/2000/svg">
<path d="M17.1786 0H9.25C8.89954 0 8.56343 0.139221 8.31561 0.387037C8.06779 0.634853 7.92857 0.970964 7.92857 1.32143V7.92857H1.32143C0.970964 7.92857 0.634853 8.06779 0.387037 8.31561C0.139221 8.56343 0 8.89954 0 9.25V18.5H18.5V1.32143C18.5 0.970964 18.3608 0.634853 18.113 0.387037C17.8651 0.139221 17.529 0 17.1786 0ZM4.625 17.1786V12.5536H7.26786V17.1786H4.625ZM17.1786 17.1786H8.58929V11.8929C8.58929 11.7176 8.51967 11.5496 8.39577 11.4257C8.27186 11.3018 8.1038 11.2321 7.92857 11.2321H3.96429C3.78905 11.2321 3.621 11.3018 3.49709 11.4257C3.37318 11.5496 3.30357 11.7176 3.30357 11.8929V17.1786H1.32143V9.25H9.25V1.32143H17.1786V17.1786Z" fill="#737373"/>
<path d="M10.5703 3.96411H11.8917V5.28554H10.5703V3.96411ZM14.5346 3.96411H15.856V5.28554H14.5346V3.96411ZM10.5703 7.9284H11.8917V9.24983H10.5703V7.9284ZM14.5346 7.9284H15.856V9.24983H14.5346V7.9284ZM10.5703 11.8927H11.8917V13.2141H10.5703V11.8927ZM14.5346 11.8927H15.856V13.2141H14.5346V11.8927Z" fill="#737373"/>
</svg>
