<svg width="20" height="22" viewBox="0 0 20 22" fill="none" xmlns="http://www.w3.org/2000/svg">
<path d="M17.3333 10.667C17.75 10.9606 18.1215 11.2936 18.4479 11.666C18.7743 12.0384 19.0556 12.4466 19.2917 12.8906C19.5278 13.3346 19.7014 13.8037 19.8125 14.2979C19.9236 14.792 19.9861 15.2969 20 15.8125C20 16.6647 19.8438 17.4668 19.5312 18.2188C19.2188 18.9707 18.7882 19.626 18.2396 20.1846C17.691 20.7432 17.0556 21.1836 16.3333 21.5059C15.6111 21.8281 14.8333 21.9928 14 22C13.3681 22 12.7569 21.9033 12.1667 21.71C11.5764 21.5166 11.0347 21.2373 10.5417 20.8721C10.0486 20.5068 9.61111 20.07 9.22917 19.5615C8.84722 19.0531 8.55208 18.4909 8.34375 17.875H0V1.375H2.66667V0H4V1.375H13.3333V0H14.6667V1.375H17.3333V10.667ZM1.33333 2.75V5.5H16V2.75H14.6667V4.125H13.3333V2.75H4V4.125H2.66667V2.75H1.33333ZM8.03125 16.5C8.01042 16.278 8 16.0488 8 15.8125C8 14.9603 8.15625 14.1582 8.46875 13.4062C8.78125 12.6543 9.21181 11.999 9.76042 11.4404C10.309 10.8818 10.9444 10.4414 11.6667 10.1191C12.3889 9.79688 13.1667 9.63216 14 9.625C14.6944 9.625 15.3611 9.74316 16 9.97949V6.875H1.33333V16.5H8.03125ZM14 20.625C14.6458 20.625 15.25 20.4997 15.8125 20.249C16.375 19.9984 16.8681 19.6546 17.2917 19.2178C17.7153 18.7809 18.0486 18.2725 18.2917 17.6924C18.5347 17.1123 18.6597 16.4857 18.6667 15.8125C18.6667 15.1465 18.5451 14.5234 18.3021 13.9434C18.059 13.3633 17.7257 12.8548 17.3021 12.418C16.8785 11.9811 16.3854 11.6374 15.8229 11.3867C15.2604 11.1361 14.6528 11.0072 14 11C13.3542 11 12.75 11.1253 12.1875 11.376C11.625 11.6266 11.1319 11.9704 10.7083 12.4072C10.2847 12.8441 9.95139 13.3525 9.70833 13.9326C9.46528 14.5127 9.34028 15.1393 9.33333 15.8125C9.33333 16.4785 9.45486 17.1016 9.69792 17.6816C9.94097 18.2617 10.2743 18.7702 10.6979 19.207C11.1215 19.6439 11.6146 19.9876 12.1771 20.2383C12.7396 20.4889 13.3472 20.6178 14 20.625ZM14.6667 15.125H16.6667V16.5H13.3333V12.375H14.6667V15.125Z" fill="#737373"/>
</svg>
