<svg width="28" height="28" viewBox="0 0 28 28" fill="none" xmlns="http://www.w3.org/2000/svg">
<path d="M11.6668 22.6818H16.3335C16.4882 22.6818 16.6366 22.515 16.746 22.2181C16.8554 21.9211 16.9168 21.5184 16.9168 21.0985C16.9168 20.6785 16.8554 20.2758 16.746 19.9789C16.6366 19.682 16.4882 19.5151 16.3335 19.5151H11.6668C11.5121 19.5151 11.3637 19.682 11.2544 19.9789C11.145 20.2758 11.0835 20.6785 11.0835 21.0985C11.0835 21.5184 11.145 21.9211 11.2544 22.2181C11.3637 22.515 11.5121 22.6818 11.6668 22.6818Z" fill="#929292"/>
<path d="M19.515 26.1863H8.48534C7.75338 26.1389 7.06828 25.7794 6.57909 25.1861C6.0899 24.5927 5.83619 23.8136 5.87317 23.0181V4.16825C5.83619 3.37276 6.0899 2.59359 6.57909 2.00025C7.06828 1.40692 7.75338 1.04743 8.48534 1H19.515C20.247 1.04743 20.9321 1.40692 21.4213 2.00025C21.9104 2.59359 22.1642 3.37276 22.1272 4.16825V23.0181C22.1642 23.8136 21.9104 24.5927 21.4213 25.1861C20.9321 25.7794 20.247 26.1389 19.515 26.1863ZM8.48534 2.2673C8.06334 2.31572 7.67563 2.54189 7.40539 2.89728C7.13514 3.25266 7.00391 3.70896 7.03984 4.16825V23.0181C7.00391 23.4774 7.13514 23.9337 7.40539 24.2891C7.67563 24.6444 8.06334 24.8706 8.48534 24.919H19.515C19.937 24.8706 20.3247 24.6444 20.595 24.2891C20.8652 23.9337 20.9964 23.4774 20.9605 23.0181V4.16825C20.9964 3.70896 20.8652 3.25266 20.595 2.89728C20.3247 2.54189 19.937 2.31572 19.515 2.2673H8.48534Z" fill="#929292"/>
</svg>
