<svg width="19" height="18" viewBox="0 0 19 18" fill="none" xmlns="http://www.w3.org/2000/svg">
<path d="M3.16667 7.75C3.16667 7.45453 3.2281 7.16194 3.34745 6.88896C3.46681 6.61598 3.64175 6.36794 3.86229 6.15901C4.08283 5.95008 4.34465 5.78434 4.63279 5.67127C4.92094 5.5582 5.22978 5.5 5.54167 5.5C5.85356 5.5 6.16239 5.5582 6.45054 5.67127C6.73869 5.78434 7.00051 5.95008 7.22105 6.15901C7.44158 6.36794 7.61653 6.61598 7.73588 6.88896C7.85524 7.16194 7.91667 7.45453 7.91667 7.75C7.91667 8.34674 7.66644 8.91903 7.22105 9.34099C6.77565 9.76295 6.17156 10 5.54167 10C4.91178 10 4.30769 9.76295 3.86229 9.34099C3.41689 8.91903 3.16667 8.34674 3.16667 7.75ZM5.54167 7C5.3317 7 5.13034 7.07902 4.98187 7.21967C4.83341 7.36032 4.75 7.55109 4.75 7.75C4.75 7.94891 4.83341 8.13968 4.98187 8.28033C5.13034 8.42098 5.3317 8.5 5.54167 8.5C5.75163 8.5 5.95299 8.42098 6.10146 8.28033C6.24993 8.13968 6.33333 7.94891 6.33333 7.75C6.33333 7.55109 6.24993 7.36032 6.10146 7.21967C5.95299 7.07902 5.75163 7 5.54167 7ZM5.54167 11C4.91178 11 4.30769 11.2371 3.86229 11.659C3.41689 12.081 3.16667 12.6533 3.16667 13.25C3.16667 13.8467 3.41689 14.419 3.86229 14.841C4.30769 15.2629 4.91178 15.5 5.54167 15.5C6.17156 15.5 6.77565 15.2629 7.22105 14.841C7.66644 14.419 7.91667 13.8467 7.91667 13.25C7.91667 12.6533 7.66644 12.081 7.22105 11.659C6.77565 11.2371 6.17156 11 5.54167 11ZM4.75 13.25C4.75 13.0511 4.83341 12.8603 4.98187 12.7197C5.13034 12.579 5.3317 12.5 5.54167 12.5C5.75163 12.5 5.95299 12.579 6.10146 12.7197C6.24993 12.8603 6.33333 13.0511 6.33333 13.25C6.33333 13.4489 6.24993 13.6397 6.10146 13.7803C5.95299 13.921 5.75163 14 5.54167 14C5.3317 14 5.13034 13.921 4.98187 13.7803C4.83341 13.6397 4.75 13.4489 4.75 13.25ZM9.5 7.75C9.5 7.55109 9.58341 7.36032 9.73187 7.21967C9.88034 7.07902 10.0817 7 10.2917 7H15.0417C15.2516 7 15.453 7.07902 15.6015 7.21967C15.7499 7.36032 15.8333 7.55109 15.8333 7.75C15.8333 7.94891 15.7499 8.13968 15.6015 8.28033C15.453 8.42098 15.2516 8.5 15.0417 8.5H10.2917C10.0817 8.5 9.88034 8.42098 9.73187 8.28033C9.58341 8.13968 9.5 7.94891 9.5 7.75ZM10.2917 12.5C10.0817 12.5 9.88034 12.579 9.73187 12.7197C9.58341 12.8603 9.5 13.0511 9.5 13.25C9.5 13.4489 9.58341 13.6397 9.73187 13.7803C9.88034 13.921 10.0817 14 10.2917 14H15.0417C15.2516 14 15.453 13.921 15.6015 13.7803C15.7499 13.6397 15.8333 13.4489 15.8333 13.25C15.8333 13.0511 15.7499 12.8603 15.6015 12.7197C15.453 12.579 15.2516 12.5 15.0417 12.5H10.2917ZM3.16667 3.75C3.16667 3.55109 3.25007 3.36032 3.39854 3.21967C3.54701 3.07902 3.74837 3 3.95833 3H15.0417C15.2516 3 15.453 3.07902 15.6015 3.21967C15.7499 3.36032 15.8333 3.55109 15.8333 3.75C15.8333 3.94891 15.7499 4.13968 15.6015 4.28033C15.453 4.42098 15.2516 4.5 15.0417 4.5H3.95833C3.74837 4.5 3.54701 4.42098 3.39854 4.28033C3.25007 4.13968 3.16667 3.94891 3.16667 3.75ZM3.43056 0C2.52072 0 1.64814 0.34241 1.00479 0.951903C0.361432 1.5614 0 2.38805 0 3.25V14.75C0 15.612 0.361432 16.4386 1.00479 17.0481C1.64814 17.6576 2.52072 18 3.43056 18H15.5694C16.4793 18 17.3519 17.6576 17.9952 17.0481C18.6386 16.4386 19 15.612 19 14.75V3.25C19 2.38805 18.6386 1.5614 17.9952 0.951903C17.3519 0.34241 16.4793 0 15.5694 0H3.43056ZM1.58333 3.25C1.58333 2.284 2.41089 1.5 3.43056 1.5H15.5694C16.5891 1.5 17.4167 2.284 17.4167 3.25V14.75C17.4167 15.2141 17.222 15.6592 16.8756 15.9874C16.5292 16.3156 16.0594 16.5 15.5694 16.5H3.43056C2.94064 16.5 2.47079 16.3156 2.12437 15.9874C1.77795 15.6592 1.58333 15.2141 1.58333 14.75V3.25Z" fill="#929292"/>
</svg>
