<svg width="37" height="38" viewBox="0 0 37 38" fill="none" xmlns="http://www.w3.org/2000/svg">
<g filter="url(#filter0_d_853_277)">
<path d="M29.25 14.5459C29.8359 14.9463 30.3584 15.4004 30.8174 15.9082C31.2764 16.416 31.6719 16.9727 32.0039 17.5781C32.3359 18.1836 32.5801 18.8232 32.7363 19.4971C32.8926 20.1709 32.9805 20.8594 33 21.5625C33 22.7246 32.7803 23.8184 32.3408 24.8438C31.9014 25.8691 31.2959 26.7627 30.5244 27.5244C29.7529 28.2861 28.8594 28.8867 27.8438 29.3262C26.8281 29.7656 25.7344 29.9902 24.5625 30C23.6738 30 22.8145 29.8682 21.9844 29.6045C21.1543 29.3408 20.3926 28.96 19.6992 28.4619C19.0059 27.9639 18.3906 27.3682 17.8535 26.6748C17.3164 25.9814 16.9014 25.2148 16.6084 24.375H4.875V1.875H8.625V0H10.5V1.875H23.625V0H25.5V1.875H29.25V14.5459ZM6.75 3.75V7.5H27.375V3.75H25.5V5.625H23.625V3.75H10.5V5.625H8.625V3.75H6.75ZM16.1689 22.5C16.1396 22.1973 16.125 21.8848 16.125 21.5625C16.125 20.4004 16.3447 19.3066 16.7842 18.2812C17.2236 17.2559 17.8291 16.3623 18.6006 15.6006C19.3721 14.8389 20.2656 14.2383 21.2812 13.7988C22.2969 13.3594 23.3906 13.1348 24.5625 13.125C25.5391 13.125 26.4766 13.2861 27.375 13.6084V9.375H6.75V22.5H16.1689ZM24.5625 28.125C25.4707 28.125 26.3203 27.9541 27.1113 27.6123C27.9023 27.2705 28.5957 26.8018 29.1914 26.2061C29.7871 25.6104 30.2559 24.917 30.5977 24.126C30.9395 23.335 31.1152 22.4805 31.125 21.5625C31.125 20.6543 30.9541 19.8047 30.6123 19.0137C30.2705 18.2227 29.8018 17.5293 29.2061 16.9336C28.6104 16.3379 27.917 15.8691 27.126 15.5273C26.335 15.1855 25.4805 15.0098 24.5625 15C23.6543 15 22.8047 15.1709 22.0137 15.5127C21.2227 15.8545 20.5293 16.3232 19.9336 16.9189C19.3379 17.5146 18.8691 18.208 18.5273 18.999C18.1855 19.79 18.0098 20.6445 18 21.5625C18 22.4707 18.1709 23.3203 18.5127 24.1113C18.8545 24.9023 19.3232 25.5957 19.9189 26.1914C20.5146 26.7871 21.208 27.2559 21.999 27.5977C22.79 27.9395 23.6445 28.1152 24.5625 28.125ZM25.5 20.625H28.3125V22.5H23.625V16.875H25.5V20.625Z" fill="#1A439A"/>
</g>
<defs>
<filter id="filter0_d_853_277" x="-1" y="0" width="38" height="38" filterUnits="userSpaceOnUse" color-interpolation-filters="sRGB">
<feFlood flood-opacity="0" result="BackgroundImageFix"/>
<feColorMatrix in="SourceAlpha" type="matrix" values="0 0 0 0 0 0 0 0 0 0 0 0 0 0 0 0 0 0 127 0" result="hardAlpha"/>
<feOffset dy="4"/>
<feGaussianBlur stdDeviation="2"/>
<feComposite in2="hardAlpha" operator="out"/>
<feColorMatrix type="matrix" values="0 0 0 0 0 0 0 0 0 0 0 0 0 0 0 0 0 0 0.25 0"/>
<feBlend mode="normal" in2="BackgroundImageFix" result="effect1_dropShadow_853_277"/>
<feBlend mode="normal" in="SourceGraphic" in2="effect1_dropShadow_853_277" result="shape"/>
</filter>
</defs>
</svg>
