<svg width="28" height="28" viewBox="0 0 28 28" fill="none" xmlns="http://www.w3.org/2000/svg">
<path d="M24.5 13.5762C25.0469 13.9499 25.5345 14.3737 25.9629 14.8477C26.3913 15.3216 26.7604 15.8411 27.0703 16.4062C27.3802 16.9714 27.6081 17.5684 27.7539 18.1973C27.8997 18.8262 27.9818 19.4688 28 20.125C28 21.2096 27.7949 22.2305 27.3848 23.1875C26.9746 24.1445 26.4095 24.9785 25.6895 25.6895C24.9694 26.4004 24.1354 26.9609 23.1875 27.3711C22.2396 27.7812 21.2188 27.9909 20.125 28C19.2956 28 18.4935 27.877 17.7188 27.6309C16.944 27.3848 16.2331 27.0293 15.5859 26.5645C14.9388 26.0996 14.3646 25.5436 13.8633 24.8965C13.362 24.2493 12.9746 23.5339 12.7012 22.75H1.75V1.75H5.25V0H7V1.75H19.25V0H21V1.75H24.5V13.5762ZM3.5 3.5V7H22.75V3.5H21V5.25H19.25V3.5H7V5.25H5.25V3.5H3.5ZM12.291 21C12.2637 20.7174 12.25 20.4258 12.25 20.125C12.25 19.0404 12.4551 18.0195 12.8652 17.0625C13.2754 16.1055 13.8405 15.2715 14.5605 14.5605C15.2806 13.8496 16.1146 13.2891 17.0625 12.8789C18.0104 12.4688 19.0312 12.2591 20.125 12.25C21.0365 12.25 21.9115 12.4004 22.75 12.7012V8.75H3.5V21H12.291ZM20.125 26.25C20.9727 26.25 21.7656 26.0905 22.5039 25.7715C23.2422 25.4525 23.8893 25.015 24.4453 24.459C25.0013 23.903 25.4388 23.2559 25.7578 22.5176C26.0768 21.7793 26.2409 20.9818 26.25 20.125C26.25 19.2773 26.0905 18.4844 25.7715 17.7461C25.4525 17.0078 25.015 16.3607 24.459 15.8047C23.903 15.2487 23.2559 14.8112 22.5176 14.4922C21.7793 14.1732 20.9818 14.0091 20.125 14C19.2773 14 18.4844 14.1595 17.7461 14.4785C17.0078 14.7975 16.3607 15.235 15.8047 15.791C15.2487 16.347 14.8112 16.9941 14.4922 17.7324C14.1732 18.4707 14.0091 19.2682 14 20.125C14 20.9727 14.1595 21.7656 14.4785 22.5039C14.7975 23.2422 15.235 23.8893 15.791 24.4453C16.347 25.0013 16.9941 25.4388 17.7324 25.7578C18.4707 26.0768 19.2682 26.2409 20.125 26.25ZM21 19.25H23.625V21H19.25V15.75H21V19.25Z" fill="#929292"/>
</svg>
