<svg width="21" height="20" viewBox="0 0 21 20" fill="none" xmlns="http://www.w3.org/2000/svg">
<path d="M11.4289 9.35401C11.335 9.44789 11.2076 9.50064 11.0749 9.50064C10.9421 9.50064 10.8147 9.44789 10.7209 9.35401C10.627 9.26012 10.5742 9.13278 10.5742 9.00001C10.5742 8.86723 10.627 8.73989 10.7209 8.64601L14.7208 4.64601C14.7673 4.59952 14.8225 4.56264 14.8833 4.53748C14.944 4.51232 15.0091 4.49937 15.0749 4.49937C15.1406 4.49937 15.2057 4.51232 15.2664 4.53748C15.3272 4.56264 15.3824 4.59952 15.4289 4.64601C15.4753 4.69249 15.5122 4.74768 15.5374 4.80842C15.5625 4.86916 15.5755 4.93426 15.5755 5.00001C15.5755 5.06575 15.5625 5.13085 15.5374 5.19159C15.5122 5.25233 15.4753 5.30752 15.4289 5.35401L11.4289 9.35401ZM5.42885 15.354C5.38236 15.4005 5.32717 15.4374 5.26643 15.4625C5.20569 15.4877 5.14059 15.5006 5.07485 15.5006C5.00911 15.5006 4.94401 15.4877 4.88327 15.4625C4.82253 15.4374 4.76734 15.4005 4.72085 15.354C4.67436 15.3075 4.63749 15.2523 4.61233 15.1916C4.58717 15.1308 4.57422 15.0657 4.57422 15C4.57422 14.9343 4.58717 14.8692 4.61233 14.8084C4.63749 14.7477 4.67436 14.6925 4.72085 14.646L8.72085 10.646C8.81474 10.5521 8.94207 10.4994 9.07485 10.4994C9.20763 10.4994 9.33496 10.5521 9.42885 10.646C9.52274 10.7399 9.57548 10.8672 9.57548 11C9.57548 11.1328 9.52274 11.2601 9.42885 11.354L5.42885 15.354Z" fill="#1A439A"/>
<path d="M5.07422 15.5C4.94161 15.5 4.81443 15.4473 4.72067 15.3536C4.6269 15.2598 4.57422 15.1326 4.57422 15C4.57422 14.8674 4.6269 14.7402 4.72067 14.6464C4.81443 14.5527 4.94161 14.5 5.07422 14.5H9.07422C9.20683 14.5 9.334 14.5527 9.42777 14.6464C9.52154 14.7402 9.57422 14.8674 9.57422 15C9.57422 15.1326 9.52154 15.2598 9.42777 15.3536C9.334 15.4473 9.20683 15.5 9.07422 15.5H5.07422Z" fill="#1A439A"/>
<path d="M5.57422 15C5.57422 15.1326 5.52154 15.2598 5.42777 15.3536C5.334 15.4473 5.20683 15.5 5.07422 15.5C4.94161 15.5 4.81443 15.4473 4.72067 15.3536C4.6269 15.2598 4.57422 15.1326 4.57422 15V11C4.57422 10.8674 4.6269 10.7402 4.72067 10.6464C4.81443 10.5527 4.94161 10.5 5.07422 10.5C5.20683 10.5 5.334 10.5527 5.42777 10.6464C5.52154 10.7402 5.57422 10.8674 5.57422 11V15ZM15.5742 9C15.5742 9.13261 15.5215 9.25979 15.4278 9.35355C15.334 9.44732 15.2068 9.5 15.0742 9.5C14.9416 9.5 14.8144 9.44732 14.7207 9.35355C14.6269 9.25979 14.5742 9.13261 14.5742 9V5C14.5742 4.86739 14.6269 4.74021 14.7207 4.64645C14.8144 4.55268 14.9416 4.5 15.0742 4.5C15.2068 4.5 15.334 4.55268 15.4278 4.64645C15.5215 4.74021 15.5742 4.86739 15.5742 5V9Z" fill="#1A439A"/>
<path d="M11.0742 5.5C10.9416 5.5 10.8144 5.44732 10.7207 5.35355C10.6269 5.25979 10.5742 5.13261 10.5742 5C10.5742 4.86739 10.6269 4.74021 10.7207 4.64645C10.8144 4.55268 10.9416 4.5 11.0742 4.5H15.0742C15.2068 4.5 15.334 4.55268 15.4278 4.64645C15.5215 4.74021 15.5742 4.86739 15.5742 5C15.5742 5.13261 15.5215 5.25979 15.4278 5.35355C15.334 5.44732 15.2068 5.5 15.0742 5.5H11.0742Z" fill="#1A439A"/>
</svg>
