<svg width="28" height="28" viewBox="0 0 28 28" fill="none" xmlns="http://www.w3.org/2000/svg">
<path d="M9.5905 4.5569L12.0282 7.4094L11.7649 7.7034C6.74762 8.82865 3 13.3095 3 18.6663C3 23.3755 6.822 27.1975 11.5312 27.1975H16.93C21.6393 27.1975 25.4613 23.3764 25.4613 18.6672C25.47 13.3095 21.7224 8.82865 16.7051 7.7034C16.7255 7.5185 16.6921 7.33164 16.6089 7.16528L18.6826 4.7914L18.8165 4.5849C18.9728 4.24394 19.0128 3.86106 18.9303 3.49516C18.8478 3.12925 18.6474 2.80058 18.3599 2.55969C18.0724 2.3188 17.7137 2.17903 17.339 2.16188C16.9643 2.14473 16.5943 2.25115 16.286 2.46478L15.5484 1.58978C15.3829 1.40461 15.1803 1.25639 14.9537 1.15477C14.7271 1.05315 14.4817 1.00042 14.2334 1C13.985 0.99959 13.7394 1.05151 13.5125 1.15237C13.2856 1.25324 13.0825 1.40079 12.9164 1.5854L12.1437 2.44815C11.8362 2.23009 11.4654 2.11942 11.0887 2.13328C10.712 2.14714 10.3503 2.28474 10.0596 2.52481C9.76895 2.76487 9.56548 3.09402 9.48068 3.46135C9.39588 3.82868 9.43448 4.21371 9.5905 4.5569ZM12.9146 5.76878L11.4306 4.05378C11.7754 4.2199 12.1655 4.26707 12.5399 4.18791C12.9143 4.10876 13.252 3.90773 13.5 3.61628L14.2 2.70803L14.977 3.62853C15.2193 3.91026 15.5461 4.10617 15.9087 4.18705C16.2714 4.26794 16.6505 4.22948 16.9895 4.0774L15.5125 5.76878H12.9146ZM4.75 18.6663C4.75 13.4268 8.9955 9.18128 14.235 9.18128C19.4745 9.18128 23.72 13.4268 23.7113 18.6645V18.6663C23.7106 20.4646 22.9959 22.189 21.7243 23.4606C20.4527 24.7322 18.7283 25.4468 16.93 25.4475H11.5312C9.73296 25.4468 8.00853 24.7322 6.73695 23.4606C5.46537 22.189 4.7507 20.4646 4.75 18.6663Z" fill="#929292"/>
<path d="M14.5525 13C14.984 13 15.3721 13.0466 15.717 13.1397C16.0635 13.2345 16.37 13.3481 16.6364 13.4805L16.2711 14.3043C16.0357 14.1948 15.775 14.0934 15.489 14.0003C15.203 13.9055 14.899 13.8581 14.577 13.8581C14.1291 13.8581 13.7876 13.9741 13.5522 14.2062C13.3168 14.4367 13.1991 14.811 13.1991 15.3291V16.9644H15.5993V17.7415H13.1991V18.9649C13.1991 19.4438 13.1166 19.7993 12.9515 20.0314C12.7881 20.2619 12.6042 20.44 12.3999 20.5659H16.9183V21.5073H11V20.637C11.3367 20.5503 11.6146 20.3812 11.8336 20.1295C12.0542 19.8794 12.1645 19.4953 12.1645 18.9772V17.7415H11.0343V16.9644H12.1645V15.2237C12.1645 14.5258 12.3819 13.9807 12.8167 13.5884C13.2531 13.1961 13.8317 13 14.5525 13Z" fill="#929292"/>
</svg>
