<svg width="16" height="16" viewBox="0 0 16 16" fill="none" xmlns="http://www.w3.org/2000/svg">
<path d="M2.85714 2.28571C2.70559 2.28571 2.56025 2.34592 2.45308 2.45308C2.34592 2.56025 2.28571 2.70559 2.28571 2.85714C2.28571 3.0087 2.34592 3.15404 2.45308 3.2612C2.56025 3.36837 2.70559 3.42857 2.85714 3.42857H13.1429C13.2944 3.42857 13.4398 3.36837 13.5469 3.2612C13.6541 3.15404 13.7143 3.0087 13.7143 2.85714C13.7143 2.70559 13.6541 2.56025 13.5469 2.45308C13.4398 2.34592 13.2944 2.28571 13.1429 2.28571H2.85714ZM4 9.14286C4.45466 9.14286 4.89069 8.96225 5.21218 8.64075C5.53367 8.31926 5.71429 7.88323 5.71429 7.42857C5.71429 6.97391 5.53367 6.53788 5.21218 6.21639C4.89069 5.8949 4.45466 5.71429 4 5.71429C3.54534 5.71429 3.10931 5.8949 2.78782 6.21639C2.46633 6.53788 2.28571 6.97391 2.28571 7.42857C2.28571 7.88323 2.46633 8.31926 2.78782 8.64075C3.10931 8.96225 3.54534 9.14286 4 9.14286ZM4 8C3.84845 8 3.7031 7.9398 3.59594 7.83263C3.48878 7.72547 3.42857 7.58012 3.42857 7.42857C3.42857 7.27702 3.48878 7.13167 3.59594 7.02451C3.7031 6.91735 3.84845 6.85714 4 6.85714C4.15155 6.85714 4.2969 6.91735 4.40406 7.02451C4.51122 7.13167 4.57143 7.27702 4.57143 7.42857C4.57143 7.58012 4.51122 7.72547 4.40406 7.83263C4.2969 7.9398 4.15155 8 4 8ZM5.71429 12C5.71429 12.4547 5.53367 12.8907 5.21218 13.2122C4.89069 13.5337 4.45466 13.7143 4 13.7143C3.54534 13.7143 3.10931 13.5337 2.78782 13.2122C2.46633 12.8907 2.28571 12.4547 2.28571 12C2.28571 11.5453 2.46633 11.1093 2.78782 10.7878C3.10931 10.4663 3.54534 10.2857 4 10.2857C4.45466 10.2857 4.89069 10.4663 5.21218 10.7878C5.53367 11.1093 5.71429 11.5453 5.71429 12ZM4.57143 12C4.57143 11.8484 4.51122 11.7031 4.40406 11.5959C4.2969 11.4888 4.15155 11.4286 4 11.4286C3.84845 11.4286 3.7031 11.4888 3.59594 11.5959C3.48878 11.7031 3.42857 11.8484 3.42857 12C3.42857 12.1516 3.48878 12.2969 3.59594 12.4041C3.7031 12.5112 3.84845 12.5714 4 12.5714C4.15155 12.5714 4.2969 12.5112 4.40406 12.4041C4.51122 12.2969 4.57143 12.1516 4.57143 12ZM6.85714 7.42857C6.85714 7.27702 6.91735 7.13167 7.02451 7.02451C7.13167 6.91735 7.27702 6.85714 7.42857 6.85714H13.1429C13.2944 6.85714 13.4398 6.91735 13.5469 7.02451C13.6541 7.13167 13.7143 7.27702 13.7143 7.42857C13.7143 7.58012 13.6541 7.72547 13.5469 7.83263C13.4398 7.9398 13.2944 8 13.1429 8H7.42857C7.27702 8 7.13167 7.9398 7.02451 7.83263C6.91735 7.72547 6.85714 7.58012 6.85714 7.42857ZM7.42857 11.4286C7.27702 11.4286 7.13167 11.4888 7.02451 11.5959C6.91735 11.7031 6.85714 11.8484 6.85714 12C6.85714 12.1516 6.91735 12.2969 7.02451 12.4041C7.13167 12.5112 7.27702 12.5714 7.42857 12.5714H13.1429C13.2944 12.5714 13.4398 12.5112 13.5469 12.4041C13.6541 12.2969 13.7143 12.1516 13.7143 12C13.7143 11.8484 13.6541 11.7031 13.5469 11.5959C13.4398 11.4888 13.2944 11.4286 13.1429 11.4286H7.42857ZM3.42857 0C2.51926 0 1.64719 0.361224 1.00421 1.00421C0.361224 1.64719 0 2.51926 0 3.42857V12.5714C0 13.4807 0.361224 14.3528 1.00421 14.9958C1.64719 15.6388 2.51926 16 3.42857 16H12.5714C13.4807 16 14.3528 15.6388 14.9958 14.9958C15.6388 14.3528 16 13.4807 16 12.5714V3.42857C16 2.51926 15.6388 1.64719 14.9958 1.00421C14.3528 0.361224 13.4807 0 12.5714 0H3.42857ZM1.14286 3.42857C1.14286 2.82236 1.38367 2.24098 1.81233 1.81233C2.24098 1.38367 2.82236 1.14286 3.42857 1.14286H12.5714C13.1776 1.14286 13.759 1.38367 14.1877 1.81233C14.6163 2.24098 14.8571 2.82236 14.8571 3.42857V12.5714C14.8571 13.1776 14.6163 13.759 14.1877 14.1877C13.759 14.6163 13.1776 14.8571 12.5714 14.8571H3.42857C2.82236 14.8571 2.24098 14.6163 1.81233 14.1877C1.38367 13.759 1.14286 13.1776 1.14286 12.5714V3.42857Z" fill="#1A439A"/>
</svg>
