<svg width="18" height="17" viewBox="0 0 18 17" fill="none" xmlns="http://www.w3.org/2000/svg">
<path d="M9.75786 7.17703C9.84173 7.26868 9.93389 7.36835 10.0336 7.47523C10.5676 8.04771 11.3063 8.81461 12.1205 9.63695C12.9398 10.4645 13.686 11.2407 14.2288 11.8254C14.4996 12.1171 14.723 12.3646 14.8802 12.5483C14.958 12.6392 15.0249 12.7205 15.0744 12.7867C15.0984 12.8188 15.1251 12.8562 15.148 12.8944C15.1592 12.9131 15.1753 12.9415 15.1901 12.9759L15.1902 12.9762C15.1996 12.998 15.2347 13.0795 15.2347 13.1876C15.2347 13.3012 15.2175 13.4065 15.1867 13.5039C16.2932 12.1708 16.9834 10.4476 16.9896 8.44642C16.991 8.00069 16.9897 7.69428 16.97 7.4707C16.9604 7.36136 16.9476 7.28809 16.9341 7.23871C16.9268 7.21157 16.9202 7.19565 16.9163 7.18743C16.904 7.18191 16.8782 7.17291 16.8299 7.16346C16.6949 7.13705 16.4966 7.1278 16.1609 7.11863L9.75786 7.17703ZM9.75786 7.17703C10.1667 7.1523 10.6954 7.13159 11.2985 7.11635C12.7355 7.08006 14.5714 7.07543 16.1608 7.11863L9.75786 7.17703ZM7.01868 0.697002L7.01869 0.696997C7.46537 0.593664 8.27055 0.523476 9.12372 0.504903C9.97419 0.486388 10.8102 0.520463 11.3138 0.60508C11.3138 0.605085 11.3138 0.605089 11.3139 0.605093L11.7846 0.684286L13.2536 3.39735C13.2536 3.39737 13.2536 3.39738 13.2536 3.3974C13.6236 4.08077 13.9517 4.71568 14.1994 5.22059C13.6405 4.94318 12.9207 4.56898 12.1482 4.15087L12.1482 4.15086C9.83436 2.89866 8.10863 2.12694 6.77864 1.82797C5.42303 1.52325 4.39493 1.69419 3.58911 2.42545L3.5891 2.42546C2.84067 3.10469 2.56197 4.09697 2.58884 5.15104C2.61573 6.20572 2.9468 7.3784 3.4867 8.52016C4.56311 10.7965 6.53232 13.0784 8.87778 14.1684L8.8778 14.1685C10.0085 14.6939 11.5141 14.8525 12.7303 14.7389C13.3393 14.682 13.9172 14.5533 14.3596 14.3395C14.3774 14.3309 14.3952 14.3221 14.4131 14.3129C11.4143 17.0409 6.42948 17.4736 2.94673 14.1482L2.94672 14.1482C-1.66404 9.74607 0.558978 2.19111 7.01868 0.697002ZM16.9259 7.19294C16.9256 7.19303 16.9236 7.19201 16.9208 7.18957C16.9248 7.19163 16.9262 7.19285 16.9259 7.19294Z" stroke="#929292"/>
</svg>
