<svg width="29" height="30" viewBox="0 0 29 30" fill="none" xmlns="http://www.w3.org/2000/svg">
<path d="M21.4811 18.5818H19.1075V20.9554H21.4811M21.4811 13.8346H19.1075V16.2082H21.4811M23.8548 23.329H14.3603V20.9554H16.7339V18.5818H14.3603V16.2082H16.7339V13.8346H14.3603V11.4609H23.8548M11.9867 9.08733H9.61304V6.71371H11.9867M11.9867 13.8346H9.61304V11.4609H11.9867M11.9867 18.5818H9.61304V16.2082H11.9867M11.9867 23.329H9.61304V20.9554H11.9867M7.23942 9.08733H4.86581V6.71371H7.23942M7.23942 13.8346H4.86581V11.4609H7.23942M7.23942 18.5818H4.86581V16.2082H7.23942M7.23942 23.329H4.86581V20.9554H7.23942M14.3603 9.08733V4.34009H2.49219V25.7027H26.2284V9.08733H14.3603Z" fill="#1A439A"/>
</svg>
