<svg width="19" height="12" viewBox="0 0 19 12" fill="none" xmlns="http://www.w3.org/2000/svg">
<path d="M8.84048 5.22639H10.5018C10.9424 5.22639 11.3649 5.05136 11.6765 4.73981C11.988 4.42826 12.1631 4.0057 12.1631 3.5651C12.1631 3.1245 11.988 2.70194 11.6765 2.39039C11.3649 2.07884 10.9424 1.90381 10.5018 1.90381H8.00983C7.51145 1.90381 7.09612 2.06994 6.84693 2.4022L2.19531 6.88768" stroke="#929292" stroke-width="1.33" stroke-linecap="round" stroke-linejoin="round"/>
<path d="M5.51846 10.2103L6.8475 9.04735C7.09669 8.71509 7.51201 8.54896 8.0104 8.54896H11.333C12.2467 8.54896 13.0773 8.21671 13.6588 7.55219L17.4798 3.89735C17.8003 3.59443 17.9874 3.17659 17.9998 2.73575C18.0123 2.2949 17.8491 1.86716 17.5462 1.54662C17.2433 1.22608 16.8255 1.03901 16.3846 1.02654C15.9438 1.01408 15.516 1.17726 15.1955 1.48017L11.7068 4.71969M1.36523 6.05703L6.34911 11.0409" stroke="#929292" stroke-width="1.33" stroke-linecap="round" stroke-linejoin="round"/>
</svg>
