<svg width="22" height="22" viewBox="0 0 22 22" fill="none" xmlns="http://www.w3.org/2000/svg">
<path d="M8.37413 2.29193C5.9303 2.34693 4.50305 2.58068 3.52772 3.55235C2.67339 4.40301 2.3883 5.59926 2.29297 7.51693M13.6285 2.29193C16.0723 2.34693 17.4996 2.58068 18.4749 3.55235C19.3292 4.40301 19.6143 5.59926 19.7096 7.51693M13.6285 19.7086C16.0723 19.6536 17.4996 19.4198 18.4749 18.4482C19.3292 17.5975 19.6143 16.4013 19.7096 14.4836M8.37413 19.7086C5.9303 19.6536 4.50305 19.4198 3.52772 18.4482C2.67339 17.5975 2.3883 16.4013 2.29297 14.4836M6.8763 15.5836C9.01397 13.3451 12.9657 13.2397 15.1263 15.5836M13.2884 8.7086C13.2884 9.9736 12.2617 11.0003 10.994 11.0003C10.6927 11.0007 10.3943 10.9418 10.1159 10.8269C9.8374 10.7119 9.58433 10.5432 9.37114 10.3303C9.15795 10.1175 8.98882 9.8647 8.87343 9.58643C8.75803 9.30815 8.69863 9.00985 8.69864 8.7086C8.69864 7.4436 9.7253 6.41693 10.994 6.41693C11.2951 6.41657 11.5934 6.47558 11.8718 6.59058C12.1502 6.70559 12.4031 6.87433 12.6162 7.08717C12.8293 7.30001 12.9983 7.55276 13.1137 7.83098C13.229 8.1092 13.2884 8.40742 13.2884 8.7086Z" stroke="#929292" stroke-width="1.375" stroke-linecap="round" stroke-linejoin="round"/>
</svg>
