<svg width="48" height="48" viewBox="0 0 48 48" fill="none" xmlns="http://www.w3.org/2000/svg">
<path d="M6.4 40.0009V41.6009H9.6V40.0009H6.4ZM22.4 40.0009V41.6009H25.6V40.0009H22.4ZM9.6 40.0009V38.4009H6.4V40.0009H9.6ZM22.4 38.4009V40.0009H25.6V38.4009H22.4ZM16 32.0009C17.6974 32.0009 19.3253 32.6752 20.5255 33.8754C21.7257 35.0756 22.4 36.7035 22.4 38.4009H25.6C25.6 35.8548 24.5886 33.413 22.7882 31.6127C20.9879 29.8123 18.5461 28.8009 16 28.8009V32.0009ZM9.6 38.4009C9.6 36.7035 10.2743 35.0756 11.4745 33.8754C12.6747 32.6752 14.3026 32.0009 16 32.0009V28.8009C13.4539 28.8009 11.0121 29.8123 9.21178 31.6127C7.41143 33.413 6.4 35.8548 6.4 38.4009H9.6ZM16 12.8009C14.3026 12.8009 12.6747 13.4752 11.4745 14.6754C10.2743 15.8756 9.6 17.5035 9.6 19.2009H12.8C12.8 18.3522 13.1371 17.5383 13.7373 16.9381C14.3374 16.338 15.1513 16.0009 16 16.0009V12.8009ZM22.4 19.2009C22.4 17.5035 21.7257 15.8756 20.5255 14.6754C19.3253 13.4752 17.6974 12.8009 16 12.8009V16.0009C16.8487 16.0009 17.6626 16.338 18.2627 16.9381C18.8629 17.5383 19.2 18.3522 19.2 19.2009H22.4ZM16 25.6009C17.6974 25.6009 19.3253 24.9266 20.5255 23.7264C21.7257 22.5261 22.4 20.8983 22.4 19.2009H19.2C19.2 20.0496 18.8629 20.8635 18.2627 21.4636C17.6626 22.0637 16.8487 22.4009 16 22.4009V25.6009ZM16 22.4009C15.1513 22.4009 14.3374 22.0637 13.7373 21.4636C13.1371 20.8635 12.8 20.0496 12.8 19.2009H9.6C9.6 20.8983 10.2743 22.5261 11.4745 23.7264C12.6747 24.9266 14.3026 25.6009 16 25.6009V22.4009ZM4.8 9.60088H43.2V6.40088H4.8V9.60088ZM44.8 11.2009V36.8009H48V11.2009H44.8ZM43.2 38.4009H4.8V41.6009H43.2V38.4009ZM3.2 36.8009V11.2009H0V36.8009H3.2ZM4.8 38.4009C4.37565 38.4009 3.96869 38.2323 3.66863 37.9323C3.36857 37.6322 3.2 37.2252 3.2 36.8009H0C0 38.0739 0.505713 39.2948 1.40589 40.195C2.30606 41.0952 3.52696 41.6009 4.8 41.6009V38.4009ZM44.8 36.8009C44.8 37.2252 44.6314 37.6322 44.3314 37.9323C44.0313 38.2323 43.6243 38.4009 43.2 38.4009V41.6009C44.473 41.6009 45.6939 41.0952 46.5941 40.195C47.4943 39.2948 48 38.0739 48 36.8009H44.8ZM43.2 9.60088C43.6243 9.60088 44.0313 9.76945 44.3314 10.0695C44.6314 10.3696 44.8 10.7765 44.8 11.2009H48C48 9.92784 47.4943 8.70694 46.5941 7.80677C45.6939 6.90659 44.473 6.40088 43.2 6.40088V9.60088ZM4.8 6.40088C3.52696 6.40088 2.30606 6.90659 1.40589 7.80677C0.505713 8.70694 0 9.92784 0 11.2009H3.2C3.2 10.7765 3.36857 10.3696 3.66863 10.0695C3.96869 9.76945 4.37565 9.60088 4.8 9.60088V6.40088ZM28.8 19.2009H38.4V16.0009H28.8V19.2009ZM28.8 28.8009H38.4V25.6009H28.8V28.8009Z" fill="#999999"/>
</svg>
