<svg width="14" height="14" viewBox="0 0 14 14" fill="none" xmlns="http://www.w3.org/2000/svg">
<path d="M4.08333 9.33317C4.3154 9.33317 4.53796 9.24098 4.70205 9.07689C4.86615 8.9128 4.95833 8.69024 4.95833 8.45817C4.96118 8.42907 4.96118 8.39977 4.95833 8.37067L6.58583 6.74317H6.85417L7.79333 7.68234V7.729C7.79333 7.96107 7.88552 8.18363 8.04962 8.34772C8.21371 8.51182 8.43627 8.604 8.66833 8.604C8.9004 8.604 9.12296 8.51182 9.28705 8.34772C9.45115 8.18363 9.54333 7.96107 9.54333 7.729V7.68234L11.6667 5.5415C11.8397 5.5415 12.0089 5.49019 12.1528 5.39404C12.2967 5.29789 12.4088 5.16124 12.4751 5.00135C12.5413 4.84147 12.5586 4.66553 12.5249 4.4958C12.4911 4.32607 12.4078 4.17016 12.2854 4.04779C12.163 3.92541 12.0071 3.84208 11.8374 3.80832C11.6676 3.77455 11.4917 3.79188 11.3318 3.85811C11.1719 3.92434 11.0353 4.03649 10.9391 4.18038C10.843 4.32427 10.7917 4.49345 10.7917 4.6665C10.7888 4.6956 10.7888 4.72491 10.7917 4.754L8.68583 6.85984H8.5925L7.58333 5.83317C7.58333 5.60111 7.49115 5.37855 7.32705 5.21445C7.16296 5.05036 6.9404 4.95817 6.70833 4.95817C6.47627 4.95817 6.25371 5.05036 6.08962 5.21445C5.92552 5.37855 5.83333 5.60111 5.83333 5.83317L4.08333 7.58317C3.85127 7.58317 3.62871 7.67536 3.46461 7.83945C3.30052 8.00355 3.20833 8.22611 3.20833 8.45817C3.20833 8.69024 3.30052 8.9128 3.46461 9.07689C3.62871 9.24098 3.85127 9.33317 4.08333 9.33317ZM11.9583 11.6665H2.04167V1.74984C2.04167 1.59513 1.98021 1.44675 1.87081 1.33736C1.76142 1.22796 1.61304 1.1665 1.45833 1.1665C1.30362 1.1665 1.15525 1.22796 1.04585 1.33736C0.936458 1.44675 0.875 1.59513 0.875 1.74984V12.2498C0.875 12.4045 0.936458 12.5529 1.04585 12.6623C1.15525 12.7717 1.30362 12.8332 1.45833 12.8332H11.9583C12.113 12.8332 12.2614 12.7717 12.3708 12.6623C12.4802 12.5529 12.5417 12.4045 12.5417 12.2498C12.5417 12.0951 12.4802 11.9468 12.3708 11.8374C12.2614 11.728 12.113 11.6665 11.9583 11.6665Z" fill="#929292"/>
</svg>
