<svg width="28" height="28" viewBox="0 0 28 28" fill="none" xmlns="http://www.w3.org/2000/svg">
<path d="M8.75 3.39764L2.625 6.46014V24.5H25.375V8.75002H14.875V6.46014L8.75 3.39764ZM8.75 5.35239L13.125 7.53989V22.75H4.375V7.53989L8.75 5.35239ZM6.125 8.75002V10.5H7.875V8.75002H6.125ZM9.625 8.75002V10.5H11.375V8.75002H9.625ZM14.875 10.5H23.625V22.75H14.875V10.5ZM6.125 12.25V14H7.875V12.25H6.125ZM9.625 12.25V14H11.375V12.25H9.625ZM16.625 12.25V14H18.375V12.25H16.625ZM20.125 12.25V14H21.875V12.25H20.125ZM6.125 15.75V17.5H7.875V15.75H6.125ZM9.625 15.75V17.5H11.375V15.75H9.625ZM16.625 15.75V17.5H18.375V15.75H16.625ZM20.125 15.75V17.5H21.875V15.75H20.125ZM6.125 19.25V21H7.875V19.25H6.125ZM9.625 19.25V21H11.375V19.25H9.625ZM16.625 19.25V21H18.375V19.25H16.625ZM20.125 19.25V21H21.875V19.25H20.125Z" fill="#929292"/>
</svg>
