<svg width="19" height="23" viewBox="0 0 19 23" fill="none" xmlns="http://www.w3.org/2000/svg">
<path d="M9.33203 12.625C10.9199 12.625 12.207 11.3378 12.207 9.75C12.207 8.16218 10.9199 6.875 9.33203 6.875C7.74421 6.875 6.45703 8.16218 6.45703 9.75C6.45703 11.3378 7.74421 12.625 9.33203 12.625Z" stroke="#1A449A" stroke-width="2.33333" stroke-linecap="round" stroke-linejoin="round"/>
<path d="M9.33268 2.08337C7.29936 2.08337 5.34931 2.89111 3.91153 4.32889C2.47375 5.76667 1.66602 7.71671 1.66602 9.75004C1.66602 11.5632 2.05127 12.7496 3.10352 14.0625L9.33268 21.25L15.5618 14.0625C16.6141 12.7496 16.9993 11.5632 16.9993 9.75004C16.9993 7.71671 16.1916 5.76667 14.7538 4.32889C13.3161 2.89111 11.366 2.08337 9.33268 2.08337Z" stroke="#1A449A" stroke-width="2.33333" stroke-linecap="round" stroke-linejoin="round"/>
</svg>
