<svg width="24" height="24" viewBox="0 0 24 24" fill="none" xmlns="http://www.w3.org/2000/svg">
  <path d="M2.33333 24.5C1.69167 24.5 1.14256 24.2717 0.686 23.8152C0.229444 23.3586 0.000777778 22.8091 0 22.1667V10.5C0 9.85833 0.228666 9.30922 0.686 8.85267C1.14333 8.39611 1.69244 8.16745 2.33333 8.16667H3.5V5.83333C3.5 4.21944 4.06894 2.84395 5.20683 1.70683C6.34472 0.569723 7.72022 0.000778574 9.33333 7.96359e-07C10.9464 -0.000776981 12.3223 0.568168 13.461 1.70683C14.5997 2.8455 15.1682 4.221 15.1667 5.83333V8.16667H16.3333C16.975 8.16667 17.5245 8.39533 17.9818 8.85267C18.4392 9.31 18.6674 9.85911 18.6667 10.5V22.1667C18.6667 22.8083 18.4384 23.3578 17.9818 23.8152C17.5253 24.2725 16.9758 24.5008 16.3333 24.5H2.33333ZM2.33333 22.1667H16.3333V10.5H2.33333V22.1667ZM9.33333 18.6667C9.975 18.6667 10.5245 18.4384 10.9818 17.9818C11.4392 17.5253 11.6674 16.9758 11.6667 16.3333C11.6659 15.6909 11.4376 15.1418 10.9818 14.686C10.5261 14.2302 9.97655 14.0016 9.33333 14C8.69011 13.9984 8.141 14.2271 7.686 14.686C7.231 15.1449 7.00233 15.694 7 16.3333C6.99767 16.9727 7.22633 17.5222 7.686 17.9818C8.14567 18.4415 8.69478 18.6698 9.33333 18.6667ZM5.83333 8.16667H12.8333V5.83333C12.8333 4.86111 12.4931 4.03472 11.8125 3.35417C11.1319 2.67361 10.3056 2.33333 9.33333 2.33333C8.36111 2.33333 7.53472 2.67361 6.85417 3.35417C6.17361 4.03472 5.83333 4.86111 5.83333 5.83333V8.16667Z" fill="#1A439A"/>
</svg>
