<svg class="svg-icon" style="width: 1em; height: 1em;vertical-align: middle;fill:
 currentColor;overflow: hidden;" viewBox="0 0 1024 1024" version="1.1" xmlns="http://www.w3.org/2000/svg"><path d="M515.072
  621.568c-73.728 0-136.704-49.664-171.008-133.12-13.824-7.168-30.72-19.968-36.352-33.792-10.24-24.064-20.48-92.16-8.704-114.176 5.632-10.752 15.872-16.384
 26.112-19.456-10.24-34.304-23.552-84.992 26.112-159.232 27.648-40.448 93.184-46.592 101.888-46.08 5.632
  0.512 14.336-0.512 17.92-1.024 12.288-10.752 31.744-10.24 61.44-9.216 4.608 0 9.216 0.512 12.8 0.512 15.872 0 35.84 12.288 58.88 37.376 24.576-4.608 58.88-0.512 85.504 32.256 29.184 36.864 25.6 106.496 21.504 142.336 7.168 5.632 14.336 13.312 19.456 24.576 8.192 18.944 2.048 45.056-7.168 79.872-2.048 7.168-3.584 13.824-4.608 17.92-5.12 26.112-21.504 38.4-34.304 47.104-45.568 118.784-114.688 134.144-169.472 134.144zM355.328 433.152c3.072 3.584 12.8 9.728 16.896 11.264 7.68 2.56 14.336 8.192 16.896 15.872 37.376 101.376 105.472 109.056 125.952 109.056 40.96 0 87.552-8.192 122.88-108.544 2.048-5.12 5.632-9.728 10.24-13.312 1.536-1.024 3.072-2.048 4.096-2.56 11.264-7.68 13.824-9.728 14.848-15.872 1.024-5.632 3.072-12.8 5.12-20.992 3.072-11.264 10.24-37.888 9.216-46.592-1.536-3.072-5.12-4.608-6.144-4.608-13.824-3.072-20.992-15.872-18.944-29.696 6.144-37.376 8.192-99.328-8.192-119.808-17.408-22.528-40.448-11.776-41.472-11.264-10.752 5.12-23.552 2.048-31.232-6.656-11.264-13.312-26.624-27.648-33.28-31.744-3.584 0-7.68 0-11.776-0.512-7.68-0.512-22.016-1.024-28.672 0-15.872 11.264-41.984 11.264-51.2 10.752-10.752 0.512-46.08 8.704-55.808 23.04-37.888 55.808-28.16 87.552-18.432 118.272 2.048 6.656 4.096 13.312 5.632 20.48 0.512 2.048 0.512 4.096 0.512 5.632 0 4.096-0.512 9.216-1.536 13.312-2.048 13.312-13.824 22.528-27.648 22.016h-8.192c0.512 15.872 4.608 47.616 10.24 62.464z m-0.512-1.024z m-8.704-70.656z m335.36-1.024zM449.536 167.424c0.512 0 0.512 0 0 0 0.512 0 0.512 0 0 0z m49.664-10.24z m41.984 0z m-34.304-4.608z m-38.4-35.84z m398.336 775.168h-202.24c-14.336 0-26.112-11.776-26.112-26.112s11.776-26.112 26.112-26.112h176.128c-2.048-35.328-14.336-99.84-77.312-119.296-49.664-14.848-77.312-19.968-95.232-23.04-22.528-4.096-35.84-6.144-55.296-22.016-11.264-9.216-12.8-25.6-3.584-36.864s25.6-12.8 36.864-3.584c8.704 7.168 10.752 7.68 31.232 11.264 19.456 3.584 48.64 8.704 101.376 24.576 102.4 30.72 119.296 142.848 114.176 197.632-1.024 13.312-12.288 23.552-26.112 23.552z m-510.976 0H159.232c-7.168 0-13.824-3.072-18.432-7.68-5.12-5.12-7.68-11.776-7.68-18.944 2.048-103.424 21.504-131.072 67.584-174.08 32.256-30.208 71.68-36.864 113.152-44.032 18.432-3.072 37.376-6.656 57.344-12.288 13.824-3.584 28.16 4.608 32.256 18.432 3.584 13.824-4.608 28.16-18.432 32.256-22.528 6.144-43.52 9.728-61.952 13.312-36.864 6.656-65.536 11.776-86.528 31.232-31.232 28.672-45.568 42.496-49.664 110.08h169.472c14.336 0 26.112 11.776 26.112 26.112s-12.288 25.6-26.624 25.6zM512 952.32c-5.12 0-10.24-1.536-14.848-5.12l-77.824-64c-8.704-7.168-10.752-18.944-5.632-28.672l59.392-113.664-36.864-47.104c-5.12-6.144-6.144-14.848-3.584-22.528 3.072-7.68 9.216-13.312 17.408-14.848 1.536 0 33.28-6.144 62.976-6.144s59.904 6.144 61.44 6.144c7.68 1.536 14.336 7.168 17.408 14.848s1.536 15.872-3.584 22.528l-36.352 46.592 59.904 113.664c5.12 9.728 2.56 22.016-6.144 29.184l-79.36 64c-4.096 3.584-9.216 5.12-14.336 5.12z m-48.64-92.672L512 899.584l50.176-39.936-49.664-93.696-49.152 93.696z m35.328-161.792l14.336 18.432 14.336-18.432c-9.728-0.512-19.456-0.512-28.672 0z" fill="#2C2C2C" /><path d="M363.52 339.456c-6.144 0-11.776-2.56-16.384-7.168-8.192-9.216-7.168-22.528 1.536-30.72 38.4-34.304 95.744-31.744 151.552-29.184 43.008 2.048 87.552 3.584 115.2-12.8 10.24-6.144 23.552-3.072 29.696 7.68 6.144 10.24 3.072 23.552-7.68 29.696-38.912 23.552-90.112 20.992-139.776 
 18.944-49.152-2.048-95.744-4.096-120.832 18.432-3.072 3.072-8.192 5.12-13.312 5.12z" fill="#2C2C2C" /></svg>