<svg width="28" height="28" viewBox="0 0 28 28" fill="none" xmlns="http://www.w3.org/2000/svg">
<path d="M20.6 17.3333H18.4V19.5556H20.6M20.6 12.8889H18.4V15.1111H20.6M22.8 21.7778H14V19.5556H16.2V17.3333H14V15.1111H16.2V12.8889H14V10.6667H22.8M11.8 8.44444H9.6V6.22222H11.8M11.8 12.8889H9.6V10.6667H11.8M11.8 17.3333H9.6V15.1111H11.8M11.8 21.7778H9.6V19.5556H11.8M7.4 8.44444H5.2V6.22222H7.4M7.4 12.8889H5.2V10.6667H7.4M7.4 17.3333H5.2V15.1111H7.4M7.4 21.7778H5.2V19.5556H7.4M14 8.44444V4H3V24H25V8.44444H14Z" fill="#929292"/>
</svg>
