<svg width="16" height="16" viewBox="0 0 16 16" fill="none" xmlns="http://www.w3.org/2000/svg">
<g clip-path="url(#clip0_3600_1595)">
<path d="M6.28571 5.71429H9.71429M8 5.71429V10.8571M11.4286 10.8571V8M11.4286 8V6.85714C11.4286 6.22596 11.9402 5.71429 12.5714 5.71429V5.71429C12.8745 5.71429 13.1652 5.83469 13.3796 6.04902C13.5939 6.26335 13.7143 6.55404 13.7143 6.85714C13.7143 7.16025 13.5939 7.45094 13.3796 7.66527C13.1652 7.87959 12.8745 8 12.5714 8H11.4286ZM4.57143 6.85714V9.14286C4.57143 9.44596 4.45102 9.73665 4.23669 9.95098C4.02237 10.1653 3.73168 10.2857 3.42857 10.2857C3.12547 10.2857 2.83478 10.1653 2.62045 9.95098C2.40612 9.73665 2.28571 9.44596 2.28571 9.14286V6.85714C2.28571 6.55404 2.40612 6.26335 2.62045 6.04902C2.83478 5.83469 3.12547 5.71429 3.42857 5.71429C3.73168 5.71429 4.02237 5.83469 4.23669 6.04902C4.45102 6.26335 4.57143 6.55404 4.57143 6.85714ZM1.14286 0H14.8571C15.1602 0 15.4509 0.120408 15.6653 0.334735C15.8796 0.549062 16 0.839753 16 1.14286V14.8571C16 15.1602 15.8796 15.4509 15.6653 15.6653C15.4509 15.8796 15.1602 16 14.8571 16H1.14286C0.839753 16 0.549062 15.8796 0.334735 15.6653C0.120408 15.4509 0 15.1602 0 14.8571V1.14286C0 0.839753 0.120408 0.549062 0.334735 0.334735C0.549062 0.120408 0.839753 0 1.14286 0Z" stroke="#737373" stroke-width="1.06667"/>
</g>
<defs>
<clipPath id="clip0_3600_1595">
<rect width="16" height="16" fill="white"/>
</clipPath>
</defs>
</svg>
