<svg width="24" height="24" viewBox="0 0 24 24" fill="none" xmlns="http://www.w3.org/2000/svg">
<path fill-rule="evenodd" clip-rule="evenodd" d="M22.425 5.526L12.9555 13.368C12.6864 13.5909 12.3479 13.7129 11.9985 13.7129C11.6491 13.7129 11.3106 13.5909 11.0415 13.368L1.5765 5.526C1.52569 5.67886 1.49986 5.83892 1.5 6V18C1.5 18.3978 1.65804 18.7794 1.93934 19.0607C2.22064 19.342 2.60218 19.5 3 19.5H21C21.3978 19.5 21.7794 19.342 22.0607 19.0607C22.342 18.7794 22.5 18.3978 22.5 18V6C22.5006 5.839 22.4753 5.67894 22.425 5.526ZM3 3H21C21.7956 3 22.5587 3.31607 23.1213 3.87868C23.6839 4.44129 24 5.20435 24 6V18C24 18.7956 23.6839 19.5587 23.1213 20.1213C22.5587 20.6839 21.7956 21 21 21H3C2.20435 21 1.44129 20.6839 0.87868 20.1213C0.316071 19.5587 0 18.7956 0 18V6C0 5.20435 0.316071 4.44129 0.87868 3.87868C1.44129 3.31607 2.20435 3 3 3ZM2.685 4.5L11.049 11.4045C11.3169 11.6258 11.6533 11.7472 12.0007 11.748C12.3481 11.7488 12.6851 11.629 12.954 11.409L21.402 4.5H2.685Z" fill="#929292"/>
</svg>
