 <svg
                          width="24"
                          height="24"
                          viewBox="0 0 24 24"
                          fill="none"
                          xmlns="http://www.w3.org/2000/svg"
                        >
                          <path
                            d="M19.3334 13.4666V11.9999C19.3334 11.611 19.1789 11.2379 18.9038 10.9629C18.6288 10.6878 18.2557 10.5333 17.8667 10.5333H3.20007C2.81108 10.5333 2.43803 10.6878 2.16298 10.9629C1.88792 11.2379 1.7334 11.611 1.7334 11.9999V20.7999C1.7334 21.1889 1.88792 21.562 2.16298 21.837C2.43803 22.1121 2.81108 22.2666 3.20007 22.2666H17.8667C18.2557 22.2666 18.6288 22.1121 18.9038 21.837C19.1789 21.562 19.3334 21.1889 19.3334 20.7999V19.3333M19.3334 13.4666H13.4667C12.6888 13.4666 11.9427 13.7757 11.3926 14.3258C10.8424 14.8759 10.5334 15.622 10.5334 16.3999C10.5334 17.1779 10.8424 17.924 11.3926 18.4741C11.9427 19.0242 12.6888 19.3333 13.4667 19.3333H19.3334M19.3334 13.4666C20.1114 13.4666 20.8575 13.7757 21.4076 14.3258C21.9577 14.8759 22.2667 15.622 22.2667 16.3999C22.2667 17.1779 21.9577 17.924 21.4076 18.4741C20.8575 19.0242 20.1114 19.3333 19.3334 19.3333M6.1334 10.5333V6.13328C6.1334 4.96632 6.59697 3.84717 7.42213 3.02201C8.24729 2.19685 9.36645 1.73328 10.5334 1.73328C11.7004 1.73328 12.8195 2.19685 13.6447 3.02201C14.4698 3.84717 14.9334 4.96632 14.9334 6.13328V10.5333M18.6001 16.3999H20.0667M15.6667 16.3999H17.1334M12.7334 16.3999H14.2001"
                            stroke="#929292"
                            stroke-width="1.86667"
                          />
                        </svg>