<svg width="23" height="23" viewBox="0 0 23 23" fill="none" xmlns="http://www.w3.org/2000/svg">
<path d="M18.6 12.7333V11.2667C18.6 10.8777 18.4455 10.5046 18.1704 10.2296C17.8954 9.95452 17.5223 9.8 17.1333 9.8H2.46667C2.07768 9.8 1.70463 9.95452 1.42958 10.2296C1.15452 10.5046 1 10.8777 1 11.2667V20.0667C1 20.4556 1.15452 20.8287 1.42958 21.1038C1.70463 21.3788 2.07768 21.5333 2.46667 21.5333H17.1333C17.5223 21.5333 17.8954 21.3788 18.1704 21.1038C18.4455 20.8287 18.6 20.4556 18.6 20.0667V18.6M18.6 12.7333H12.7333C11.9554 12.7333 11.2093 13.0424 10.6592 13.5925C10.109 14.1426 9.8 14.8887 9.8 15.6667C9.8 16.4446 10.109 17.1907 10.6592 17.7408C11.2093 18.291 11.9554 18.6 12.7333 18.6H18.6M18.6 12.7333C19.378 12.7333 20.1241 13.0424 20.6742 13.5925C21.2243 14.1426 21.5333 14.8887 21.5333 15.6667C21.5333 16.4446 21.2243 17.1907 20.6742 17.7408C20.1241 18.291 19.378 18.6 18.6 18.6M5.4 9.8V5.4C5.4 4.23305 5.86357 3.11389 6.68873 2.28873C7.51389 1.46357 8.63305 1 9.8 1C10.967 1 12.0861 1.46357 12.9113 2.28873C13.7364 3.11389 14.2 4.23305 14.2 5.4V9.8M17.8667 15.6667H19.3333M14.9333 15.6667H16.4M12 15.6667H13.4667" stroke="#929292" stroke-width="1.86667"/>
</svg>
