<svg width="22" height="22" viewBox="0 0 22 22" fill="none" xmlns="http://www.w3.org/2000/svg">
<path d="M12.0313 14.4688C12.0313 14.6727 11.9708 14.8721 11.8575 15.0417C11.7441 15.2113 11.5831 15.3434 11.3946 15.4215C11.2062 15.4996 10.9989 15.52 10.7988 15.4802C10.5988 15.4404 10.415 15.3422 10.2708 15.198C10.1266 15.0537 10.0284 14.87 9.98857 14.6699C9.94878 14.4699 9.9692 14.2625 10.0473 14.0741C10.1253 13.8857 10.2575 13.7246 10.4271 13.6113C10.5967 13.498 10.796 13.4375 11 13.4375C11.2735 13.4375 11.5358 13.5462 11.7292 13.7395C11.9226 13.9329 12.0313 14.1952 12.0313 14.4688ZM11 5.1875C9.10422 5.1875 7.5625 6.57539 7.5625 8.28125V8.625C7.5625 8.80734 7.63494 8.9822 7.76387 9.11114C7.8928 9.24007 8.06767 9.3125 8.25 9.3125C8.43234 9.3125 8.60721 9.24007 8.73614 9.11114C8.86507 8.9822 8.9375 8.80734 8.9375 8.625V8.28125C8.9375 7.33594 9.86305 6.5625 11 6.5625C12.137 6.5625 13.0625 7.33594 13.0625 8.28125C13.0625 9.22656 12.137 10 11 10C10.8177 10 10.6428 10.0724 10.5139 10.2014C10.3849 10.3303 10.3125 10.5052 10.3125 10.6875V11.375C10.3125 11.5573 10.3849 11.7322 10.5139 11.8611C10.6428 11.9901 10.8177 12.0625 11 12.0625C11.1823 12.0625 11.3572 11.9901 11.4861 11.8611C11.6151 11.7322 11.6875 11.5573 11.6875 11.375V11.3131C13.255 11.0252 14.4375 9.77484 14.4375 8.28125C14.4375 6.57539 12.8958 5.1875 11 5.1875ZM19.9375 10C19.9375 11.7677 19.4133 13.4956 18.4313 14.9654C17.4492 16.4352 16.0534 17.5807 14.4202 18.2572C12.7871 18.9336 10.9901 19.1106 9.25638 18.7658C7.52268 18.4209 5.93017 17.5697 4.68024 16.3198C3.43031 15.0698 2.57909 13.4773 2.23424 11.7436C1.88938 10.0099 2.06637 8.21288 2.74283 6.57977C3.41929 4.94665 4.56483 3.55081 6.0346 2.56874C7.50436 1.58668 9.23233 1.0625 11 1.0625C13.3696 1.065 15.6414 2.00743 17.317 3.683C18.9926 5.35856 19.935 7.6304 19.9375 10ZM18.5625 10C18.5625 8.50428 18.119 7.04215 17.288 5.7985C16.457 4.55485 15.2759 3.58555 13.894 3.01316C12.5122 2.44077 10.9916 2.29101 9.52463 2.58281C8.05765 2.87461 6.71014 3.59487 5.65251 4.65251C4.59487 5.71014 3.87462 7.05765 3.58282 8.52463C3.29101 9.99161 3.44078 11.5122 4.01316 12.894C4.58555 14.2759 5.55486 15.457 6.7985 16.288C8.04215 17.119 9.50428 17.5625 11 17.5625C13.005 17.5602 14.9272 16.7627 16.345 15.345C17.7627 13.9272 18.5602 12.005 18.5625 10Z" fill="#929292"/>
</svg>
