<svg width="17" height="23" viewBox="0 0 17 23" fill="none" xmlns="http://www.w3.org/2000/svg">
<path d="M0 0V22.3932H15.7857V19.6159H17V18.2163H15.7857V15.4062H17V14.0067H15.7857V8.40837H17V7.0088H15.7857V4.20965H17V2.81008H15.7857V0H0ZM1.21429 1.39957H14.5714V20.9936H1.21429V1.39957ZM2.42857 5.59829H8.5V4.19872H2.42857V5.59829ZM2.42857 8.39744H8.5V6.99786H2.42857V8.39744ZM11.5357 18.1507C11.7824 18.1507 12.0132 18.0997 12.2282 17.9976C12.4433 17.8956 12.633 17.7498 12.7974 17.5603C12.9619 17.3707 13.0884 17.1521 13.1769 16.9042C13.2654 16.6564 13.3129 16.3867 13.3192 16.0951C13.3192 15.8108 13.2749 15.5447 13.1864 15.2969C13.0978 15.0491 12.9714 14.834 12.8069 14.6518C12.6425 14.4695 12.4528 14.3201 12.2377 14.2035C12.0227 14.0868 11.7887 14.0322 11.5357 14.0395C11.2891 14.0395 11.0582 14.0941 10.8432 14.2035C10.6282 14.3128 10.4416 14.4586 10.2835 14.6408C10.1254 14.8231 9.99572 15.0418 9.89453 15.2969C9.79334 15.552 9.74591 15.8181 9.75223 16.0951C9.75223 16.3794 9.79967 16.6454 9.89453 16.8933C9.9894 17.1411 10.1159 17.3598 10.274 17.5493C10.4321 17.7389 10.6218 17.8846 10.8432 17.9867C11.0645 18.0887 11.2954 18.1434 11.5357 18.1507ZM11.5357 15.3516C11.7191 15.3516 11.8709 15.4208 11.9911 15.5593C12.1112 15.6978 12.1745 15.8764 12.1808 16.0951C12.1808 16.3065 12.1207 16.4814 12.0006 16.6199C11.8804 16.7584 11.7254 16.8313 11.5357 16.8386C11.3523 16.8386 11.2005 16.7694 11.0804 16.6309C10.9602 16.4924 10.8969 16.3138 10.8906 16.0951C10.8906 15.8837 10.9507 15.7087 11.0709 15.5702C11.191 15.4317 11.346 15.3589 11.5357 15.3516ZM11.5357 8.3537C11.7824 8.3537 12.0132 8.30267 12.2282 8.20062C12.4433 8.09857 12.633 7.95278 12.7974 7.76325C12.9619 7.57373 13.0884 7.35505 13.1769 7.1072C13.2654 6.85936 13.3129 6.58965 13.3192 6.29808C13.3192 6.01379 13.2749 5.74772 13.1864 5.49988C13.0978 5.25204 12.9714 5.037 12.8069 4.85477C12.6425 4.67253 12.4528 4.5231 12.2377 4.40647C12.0227 4.28984 11.7887 4.23517 11.5357 4.24245C11.2891 4.24245 11.0582 4.29713 10.8432 4.40647C10.6282 4.51581 10.4416 4.6616 10.2835 4.84383C10.1254 5.02607 9.99572 5.24475 9.89453 5.49988C9.79334 5.75501 9.74591 6.02108 9.75223 6.29808C9.75223 6.58237 9.79967 6.84843 9.89453 7.09627C9.9894 7.34411 10.1159 7.56279 10.274 7.75232C10.4321 7.94185 10.6218 8.08763 10.8432 8.18969C11.0645 8.29174 11.2954 8.34641 11.5357 8.3537ZM11.5357 5.55455C11.7191 5.55455 11.8709 5.6238 11.9911 5.7623C12.1112 5.9008 12.1745 6.07939 12.1808 6.29808C12.1808 6.50947 12.1207 6.68442 12.0006 6.82292C11.8804 6.96142 11.7254 7.03431 11.5357 7.0416C11.3523 7.0416 11.2005 6.97235 11.0804 6.83385C10.9602 6.69535 10.8969 6.51676 10.8906 6.29808C10.8906 6.08668 10.9507 5.91174 11.0709 5.77324C11.191 5.63474 11.346 5.56184 11.5357 5.55455ZM2.42857 15.3953H8.5V13.9957H2.42857V15.3953ZM2.42857 18.1944H8.5V16.7949H2.42857V18.1944Z" fill="#929292"/>
</svg>
