<svg width="21" height="21" viewBox="0 0 21 21" fill="none" xmlns="http://www.w3.org/2000/svg">
<path d="M10.5 0C8.624 0 7.1015 1.505 7.02625 3.3635C5.45765 4.03376 4.12095 5.15079 3.18273 6.5754C2.24451 8 1.74623 9.6692 1.75 11.375C1.75 11.5238 1.743 11.69 1.75 11.8676C0.713125 12.4766 0 13.5931 0 14.875C0 16.7974 1.57762 18.375 3.5 18.375C4.00312 18.375 4.48875 18.2683 4.92188 18.074C6.43825 19.348 8.41575 20.125 10.5 20.125C12.5842 20.125 14.5617 19.348 16.0781 18.074C16.5256 18.2732 17.0101 18.3758 17.5 18.375C19.4224 18.375 21 16.7974 21 14.875C21 13.58 20.2781 12.4451 19.2237 11.8388C19.2369 11.6988 19.25 11.5587 19.25 11.375C19.254 9.66915 18.7558 7.99985 17.8176 6.5752C16.8793 5.15055 15.5425 4.03357 13.9737 3.3635C13.8976 1.505 12.3751 0 10.5 0ZM10.5 1.75C11.4765 1.75 12.25 2.5235 12.25 3.5C12.25 4.4765 11.4765 5.25 10.5 5.25C9.5235 5.25 8.75 4.4765 8.75 3.5C8.75 2.5235 9.5235 1.75 10.5 1.75ZM7.41125 5.1135C7.9975 6.22825 9.16125 7 10.5 7C11.8387 7 13.0025 6.22825 13.5888 5.1135C14.7634 5.68391 15.7535 6.57395 16.4453 7.68148C17.1371 8.78901 17.5027 10.0692 17.5 11.375C15.5776 11.375 14 12.9526 14 14.875C14 15.6581 14.2712 16.3677 14.7114 16.9531C13.497 17.8675 12.0201 18.3661 10.5 18.375C8.97982 18.3663 7.50296 17.8677 6.28863 16.9531C6.74656 16.3568 6.99643 15.6268 7 14.875C7 12.9526 5.42238 11.375 3.5 11.375C3.5 8.645 5.06625 6.251 7.41125 5.1135ZM3.5 13.125C4.4765 13.125 5.25 13.8985 5.25 14.875C5.25 15.8515 4.4765 16.625 3.5 16.625C2.5235 16.625 1.75 15.8515 1.75 14.875C1.75 13.8985 2.5235 13.125 3.5 13.125ZM17.5 13.125C18.4765 13.125 19.25 13.8985 19.25 14.875C19.25 15.8515 18.4765 16.625 17.5 16.625C16.5235 16.625 15.75 15.8515 15.75 14.875C15.75 13.8985 16.5235 13.125 17.5 13.125Z" fill="#818181"/>
</svg>
