<svg width="28" height="28" viewBox="0 0 28 28" fill="none" xmlns="http://www.w3.org/2000/svg">
<path d="M25.6666 25.6667H2.33325M2.33325 12.8333L11.8136 5.25C12.4342 4.75357 13.2052 4.48312 13.9999 4.48312C14.7946 4.48312 15.5657 4.75357 16.1863 5.25L25.6666 12.8333M18.0833 6.41667V4.08333C18.0833 3.92862 18.1447 3.78025 18.2541 3.67085C18.3635 3.56146 18.5119 3.5 18.6666 3.5H21.5833C21.738 3.5 21.8863 3.56146 21.9957 3.67085C22.1051 3.78025 22.1666 3.92862 22.1666 4.08333V9.91667M4.66659 25.6667V11.0833M23.3333 25.6667V11.0833" stroke="#A0A0A0" stroke-width="1.75" stroke-linecap="round"/>
<path d="M17.5 25.6667V19.8333C17.5 18.1837 17.5 17.3588 16.9867 16.8467C16.4757 16.3333 15.6508 16.3333 14 16.3333C12.3503 16.3333 11.5255 16.3333 11.0133 16.8467C10.5 17.3577 10.5 18.1825 10.5 19.8333V25.6667M16.3333 11.0833C16.3333 11.7022 16.0875 12.2957 15.6499 12.7332C15.2123 13.1708 14.6188 13.4167 14 13.4167C13.3812 13.4167 12.7877 13.1708 12.3501 12.7332C11.9125 12.2957 11.6667 11.7022 11.6667 11.0833C11.6667 10.4645 11.9125 9.871 12.3501 9.43342C12.7877 8.99583 13.3812 8.75 14 8.75C14.6188 8.75 15.2123 8.99583 15.6499 9.43342C16.0875 9.871 16.3333 10.4645 16.3333 11.0833Z" stroke="#A0A0A0" stroke-width="1.75"/>
</svg>
