<svg width="28" height="28" viewBox="0 0 28 28" fill="none" xmlns="http://www.w3.org/2000/svg">
<path d="M3.54525 8.66671H24.6666M5.99992 3.33337H21.9999C22.7072 3.33337 23.3854 3.61433 23.8855 4.11442C24.3856 4.61452 24.6666 5.2928 24.6666 6.00004V21.9867C24.6666 22.694 24.3856 23.3722 23.8855 23.8723C23.3854 24.3724 22.7072 24.6534 21.9999 24.6534H5.99992C5.29267 24.6534 4.6144 24.3724 4.1143 23.8723C3.6142 23.3722 3.33325 22.694 3.33325 21.9867V6.00004C3.33325 5.2928 3.6142 4.61452 4.1143 4.11442C4.6144 3.61433 5.29267 3.33337 5.99992 3.33337Z" stroke="#929292" stroke-width="1.33333" stroke-linecap="round" stroke-linejoin="round"/>
<path fill-rule="evenodd" clip-rule="evenodd" d="M9.08784 17.5401V16.1014H10.2612C11.1518 16.1014 11.7572 15.5747 11.7572 14.8054C11.7572 14.1027 11.2038 13.5694 10.2865 13.5694C9.33584 13.5694 8.7505 14.0574 8.68517 14.8974H6.8665C6.9345 13.1654 8.26784 12.0001 10.3838 12.0001C12.4678 12.0001 13.6265 13.1521 13.6198 14.5267C13.6132 15.6654 12.8972 16.4147 11.8878 16.6614V16.7854C13.1958 16.9734 13.9905 17.8067 13.9905 19.0641C13.9905 20.7107 12.4412 21.8774 10.3185 21.8774C8.19584 21.8774 6.7505 20.7161 6.6665 18.9387H8.54784C8.6065 19.7334 9.28384 20.2414 10.2932 20.2414C11.2892 20.2414 11.9865 19.7001 11.9865 18.8867C11.9865 18.0534 11.3345 17.5401 10.2798 17.5401H9.08784ZM18.0212 21.6361V14.1547H17.9052L15.5998 15.7441V13.9147L18.0278 12.2414H19.9878V21.6361H18.0212Z" fill="#929292"/>
</svg>
