<svg width="24" height="26" viewBox="0 0 24 26" fill="none" xmlns="http://www.w3.org/2000/svg">
<g clip-path="url(#clip0_853_57)">
<path d="M9.60005 9.5333H14.4M12 9.5333V17.3333M16.8 17.3333V13M16.8 13V9.5333H18.4C18.8244 9.5333 19.2314 9.71592 19.5314 10.041C19.8315 10.366 20 10.8069 20 11.2666C20 11.7263 19.8315 12.1672 19.5314 12.4923C19.2314 12.8174 18.8244 13 18.4 13H16.8ZM7.20005 11.2666V14.7333C7.20005 15.193 7.03148 15.6339 6.73142 15.959C6.43136 16.284 6.0244 16.4666 5.60005 16.4666C5.1757 16.4666 4.76874 16.284 4.46868 15.959C4.16862 15.6339 4.00005 15.193 4.00005 14.7333V11.2666C4.00005 10.8069 4.16862 10.366 4.46868 10.041C4.76874 9.71592 5.1757 9.5333 5.60005 9.5333C6.0244 9.5333 6.43136 9.71592 6.73142 10.041C7.03148 10.366 7.20005 10.8069 7.20005 11.2666ZM2.40005 0.866638H21.6C22.0244 0.866638 22.4314 1.04926 22.7314 1.37432C23.0315 1.69938 23.2 2.14026 23.2 2.59997V23.4C23.2 23.8597 23.0315 24.3006 22.7314 24.6256C22.4314 24.9507 22.0244 25.1333 21.6 25.1333H2.40005C1.9757 25.1333 1.56874 24.9507 1.26868 24.6256C0.96862 24.3006 0.800049 23.8597 0.800049 23.4V2.59997C0.800049 2.14026 0.96862 1.69938 1.26868 1.37432C1.56874 1.04926 1.9757 0.866638 2.40005 0.866638Z" stroke="#A0A0A0" stroke-width="1.86667"/>
</g>
<defs>
<clipPath id="clip0_853_57">
<rect width="24" height="26" fill="white"/>
</clipPath>
</defs>
</svg>
