<svg width="25" height="19" viewBox="0 0 25 19" fill="none" xmlns="http://www.w3.org/2000/svg">
<path d="M15.1489 0.000403583C14.6632 0.00390358 14.1811 0.0275288 13.6719 0.164029C13.1171 0.314621 12.5907 0.554916 12.1135 0.875404C11.4432 0.481654 10.794 0.157904 10.1719 0.0817785C9.39925 -0.0135965 8.68175 0.0380288 7.84787 0.0555288C6.85912 0.0756538 6.21425 0.580529 5.16775 0.984779C4.12213 1.38728 2.7755 1.77753 0.875 1.77753H0V10.1994L0.492625 10.4453L2.10525 11.2389L7.84787 17.6369L7.875 17.664C8.53125 18.3133 9.41675 18.4743 10.199 18.4297C10.9821 18.3859 11.7171 18.1567 12.3043 17.8014C13.5966 17.0218 17.1168 14.5744 17.1168 14.5744L17.199 14.5193L17.2541 14.465C17.6706 14.0512 17.8797 13.5463 18.0198 13.016L21.3824 11.3203L23.898 10.4733L24.5 10.2808V1.77753H23.625C22.1542 1.78759 20.6956 1.50873 19.3323 0.956779C18.2857 0.548154 17.6505 0.0485287 16.6513 0.0275287C16.1175 0.0170287 15.6336 -0.00309642 15.1489 0.000403583ZM15.1751 1.7504C15.5689 1.7469 16.0239 1.7679 16.5979 1.77753C16.6898 1.78103 17.5306 2.13978 18.7031 2.59828C19.6945 2.98765 21.0718 3.33328 22.75 3.44528V9.0234L20.7261 9.70765H20.6719L20.6168 9.7339L17.9655 11.0744C17.8248 10.6684 17.6013 10.2959 17.3092 9.98065L17.2541 9.8984L13.5354 5.33265L12.9885 4.6484L12.3043 5.19528L9.95312 7.10978C9.16387 7.65665 8.52425 7.49915 7.875 7.19203C7.68687 7.10278 7.69737 7.07565 7.54688 6.97328L11.5395 3.66403L11.5938 3.60978C12.7794 2.43378 13.5083 2.0269 14.1365 1.85978C14.4515 1.77403 14.7823 1.7539 15.1751 1.7504ZM9.079 1.77753C9.37094 1.76652 9.6633 1.77559 9.954 1.80465C10.1833 1.83178 10.4431 2.0269 10.6654 2.10565C10.5761 2.1879 10.5114 2.23515 10.4186 2.3244L10.3644 2.37953L5.579 6.34328L4.8405 6.94528L5.49675 7.62865C5.49675 7.62865 6.12938 8.3129 7.11025 8.77753C8.09113 9.24215 9.60575 9.50553 10.9655 8.55878L11.0206 8.50365L12.7155 7.10978L15.9425 11.0744L15.9696 11.1295L15.9967 11.1558C16.5742 11.7272 16.5611 12.6258 15.9967 13.2077C15.9897 13.2138 16.0037 13.2278 15.9967 13.2339C15.9897 13.2383 15.8742 13.3065 15.8602 13.317L14.7114 11.7578L13.2895 12.7973L14.4112 14.3005C13.9562 14.6085 13.7515 14.7695 13.2624 15.0942L12.0872 13.5078L10.6645 14.5473L11.7863 16.0505C11.6865 16.1118 11.4817 16.2492 11.403 16.2973C11.1265 16.4644 10.5927 16.6525 10.1176 16.6797C9.6705 16.7042 9.32837 16.6009 9.16125 16.4609L9.13412 16.4338L3.28212 9.95353L3.17275 9.81615L1.75 9.10565V3.44528C3.42125 3.3359 4.809 3.00428 5.79688 2.6254C6.96588 2.1774 7.80063 1.80815 7.90213 1.80465L9.079 1.77753Z" fill="#929292"/>
</svg>
