<svg width="28" height="28" viewBox="0 0 28 28" fill="none" xmlns="http://www.w3.org/2000/svg">
<path d="M22.7497 7H18.6663V5.83333C18.6654 5.21478 18.4193 4.62182 17.9819 4.18444C17.5445 3.74706 16.9516 3.50093 16.333 3.5H11.6663C11.0478 3.50093 10.4548 3.74706 10.0174 4.18444C9.58006 4.62182 9.33393 5.21478 9.33301 5.83333V7H5.24967C4.47632 7.00062 3.73481 7.30811 3.18796 7.85495C2.64112 8.4018 2.33363 9.14331 2.33301 9.91667V21.5833C2.33363 22.3567 2.64112 23.0982 3.18796 23.645C3.73481 24.1919 4.47632 24.4994 5.24967 24.5H22.7497C23.523 24.4994 24.2645 24.1919 24.8114 23.645C25.3582 23.0982 25.6657 22.3567 25.6663 21.5833V9.91667C25.6657 9.14331 25.3582 8.4018 24.8114 7.85495C24.2645 7.30811 23.523 7.00062 22.7497 7ZM10.4997 5.83333C10.4997 5.52391 10.6226 5.22717 10.8414 5.00838C11.0602 4.78958 11.3569 4.66667 11.6663 4.66667H16.333C16.6424 4.66667 16.9392 4.78958 17.158 5.00838C17.3768 5.22717 17.4997 5.52391 17.4997 5.83333V7H10.4997V5.83333ZM24.4997 21.5833C24.4997 22.0475 24.3153 22.4926 23.9871 22.8208C23.6589 23.149 23.2138 23.3333 22.7497 23.3333H5.24967C4.78555 23.3333 4.34043 23.149 4.01224 22.8208C3.68405 22.4926 3.49967 22.0475 3.49967 21.5833V14.0315L10.3153 16.3042C10.3749 16.3235 10.4371 16.3334 10.4997 16.3333H17.4997C17.5623 16.3334 17.6245 16.3235 17.684 16.3042L24.4997 14.0315V21.5833ZM24.4997 12.8403C24.4374 12.838 24.3751 12.8459 24.3153 12.8637L17.4052 15.1667H10.5942L3.68401 12.8625C3.62425 12.8447 3.56198 12.8368 3.49967 12.8392V9.91667C3.49967 9.45254 3.68405 9.00742 4.01224 8.67923C4.34043 8.35104 4.78555 8.16667 5.24967 8.16667H22.7497C23.2138 8.16667 23.6589 8.35104 23.9871 8.67923C24.3153 9.00742 24.4997 9.45254 24.4997 9.91667V12.8403Z" fill="#929292"/>
</svg>
