<svg width="15" height="14" viewBox="0 0 15 14" fill="none" xmlns="http://www.w3.org/2000/svg">
<path d="M12.0484 9.00003H10.6449V10.4035H12.0484M12.0484 6.19301H10.6449V7.59652H12.0484M13.4519 11.807H7.83786V10.4035H9.24137V9.00003H7.83786V7.59652H9.24137V6.19301H7.83786V4.78951H13.4519M6.43435 3.386H5.03084V1.98249H6.43435M6.43435 6.19301H5.03084V4.78951H6.43435M6.43435 9.00003H5.03084V7.59652H6.43435M6.43435 11.807H5.03084V10.4035H6.43435M3.62733 3.386H2.22382V1.98249H3.62733M3.62733 6.19301H2.22382V4.78951H3.62733M3.62733 9.00003H2.22382V7.59652H3.62733M3.62733 11.807H2.22382V10.4035H3.62733M7.83786 3.386V0.578979H0.820312V13.2106H14.8554V3.386H7.83786Z" fill="#1A439A"/>
</svg>
