<svg width="23" height="27" viewBox="0 0 23 27" fill="none" xmlns="http://www.w3.org/2000/svg">
<path d="M11.235 16.0213H11.2963C12.6088 16.0563 13.6588 17.1238 13.6588 18.4363C13.6588 19.5563 12.8975 20.4925 11.865 20.7725V21.7525C11.865 22.1025 11.585 22.3825 11.235 22.3825C10.885 22.3825 10.605 22.1025 10.605 21.7525V20.7725C10.0909 20.6343 9.63661 20.3305 9.31239 19.9082C8.98816 19.486 8.81205 18.9686 8.81128 18.4363C8.81128 18.0863 9.09128 17.8063 9.44128 17.8063C9.79128 17.8063 10.0713 18.0863 10.0713 18.4363C10.0713 19.0838 10.5875 19.6 11.2263 19.6C11.865 19.6 12.39 19.075 12.39 18.4363C12.39 17.7975 11.865 17.2725 11.2263 17.2725H11.165C10.5356 17.2554 9.93757 16.9936 9.49807 16.5427C9.05856 16.0917 8.81219 15.4872 8.81128 14.8575C8.81128 13.7375 9.57253 12.8013 10.605 12.5213V11.5413C10.605 11.1913 10.885 10.9113 11.235 10.9113C11.585 10.9113 11.865 11.1913 11.865 11.5413V12.5213C12.8975 12.8013 13.6588 13.7375 13.6588 14.8575C13.6588 15.2075 13.3788 15.4875 13.0288 15.4875C12.6788 15.4875 12.3988 15.2075 12.3988 14.8575C12.3988 14.2188 11.8738 13.6938 11.235 13.6938C10.5963 13.6938 10.0713 14.2188 10.0713 14.8575C10.0713 15.4963 10.5963 16.0213 11.235 16.0213Z" fill="#1A439A"/>
<path d="M6.5905 3.5569L9.02825 6.4094L8.76488 6.7034C3.74762 7.82865 0 12.3095 0 17.6663C0 22.3755 3.822 26.1975 8.53125 26.1975H13.93C18.6392 26.1975 22.4613 22.3764 22.4613 17.6672C22.47 12.3095 18.7224 7.82865 13.7051 6.7034C13.7255 6.5185 13.6921 6.33164 13.6089 6.16528L15.6826 3.7914L15.8165 3.5849C15.9728 3.24394 16.0128 2.86106 15.9303 2.49516C15.8478 2.12925 15.6474 1.80058 15.3599 1.55969C15.0724 1.3188 14.7137 1.17903 14.339 1.16188C13.9643 1.14473 13.5943 1.25115 13.286 1.46478L12.5484 0.589776C12.3829 0.404609 12.1803 0.256387 11.9537 0.154768C11.7271 0.0531493 11.4817 0.000415215 11.2334 2.4421e-06C10.985 -0.00041033 10.7394 0.0515075 10.5125 0.152372C10.2856 0.253237 10.0825 0.400785 9.91638 0.585401L9.14375 1.44815C8.83623 1.23009 8.46543 1.11942 8.08869 1.13328C7.71196 1.14714 7.35029 1.28474 7.05962 1.52481C6.76895 1.76487 6.56548 2.09402 6.48068 2.46135C6.39588 2.82868 6.43448 3.21371 6.5905 3.5569ZM9.91463 4.76878L8.43062 3.05378C8.77539 3.2199 9.16549 3.26707 9.53992 3.18791C9.91434 3.10876 10.252 2.90773 10.5 2.61628L11.2 1.70803L11.977 2.62853C12.2193 2.91026 12.5461 3.10617 12.9087 3.18705C13.2714 3.26794 13.6505 3.22948 13.9895 3.0774L12.5125 4.76878H9.91463ZM1.75 17.6663C1.75 12.4268 5.9955 8.18128 11.235 8.18128C16.4745 8.18128 20.72 12.4268 20.7113 17.6645V17.6663C20.7106 19.4646 19.9959 21.189 18.7243 22.4606C17.4527 23.7322 15.7283 24.4468 13.93 24.4475H8.53125C6.73296 24.4468 5.00853 23.7322 3.73695 22.4606C2.46537 21.189 1.7507 19.4646 1.75 17.6663Z" fill="#1A439A"/>
</svg>
