<svg width="18" height="18" viewBox="0 0 18 18" fill="none" xmlns="http://www.w3.org/2000/svg">
<path d="M13.0484 10.999H11.6449V12.4025H13.0484M13.0484 8.19198H11.6449V9.59549H13.0484M14.4519 13.806H8.83786V12.4025H10.2414V10.999H8.83786V9.59549H10.2414V8.19198H8.83786V6.78847H14.4519M7.43435 5.38496H6.03084V3.98145H7.43435M7.43435 8.19198H6.03084V6.78847H7.43435M7.43435 10.999H6.03084V9.59549H7.43435M7.43435 13.806H6.03084V12.4025H7.43435M4.62733 5.38496H3.22382V3.98145H4.62733M4.62733 8.19198H3.22382V6.78847H4.62733M4.62733 10.999H3.22382V9.59549H4.62733M4.62733 13.806H3.22382V12.4025H4.62733M8.83786 5.38496V2.57794H1.82031V15.2095H15.8554V5.38496H8.83786Z" fill="#1A439A"/>
</svg>
